
<svg xmlns="http://www.w3.org/2000/svg" version="1.1" xmlns:xlink="http://www.w3.org/1999/xlink" preserveAspectRatio="none" x="0px" y="0px" width="1024px" height="1024px" viewBox="0 0 1024 1024">
<defs>
<g id="Layer0_0_MEMBER_0_FILL">
<path fill="#ECE4F8" stroke="none" d="
M 421.1 131.5
Q 421.1 129.5 419.65 128.05 418.25 126.65 416.25 126.65 414.2 126.65 412.8 128.05 411.35 129.5 411.35 131.5 411.35 133.5 412.8 134.95 414.2 136.35 416.25 136.35 418.25 136.35 419.65 134.95 421.1 133.5 421.1 131.5 Z"/>
</g>

<g id="Layer0_0_MEMBER_1_FILL">
<path fill="#BDB7C6" stroke="none" d="
M 8.35 4.7
Q 8.35 3.05 7.3 1.7 6.3 0.4 4.7 0 6.05 1.45 6.05 3.35 6.05 5.4 4.65 6.8 3.25 8.2 1.2 8.2 0.55 8.2 0 8.05 1.35 9.55 3.5 9.55 5.55 9.55 6.95 8.15 8.35 6.75 8.35 4.7 Z"/>
</g>

<g id="Layer0_0_MEMBER_2_FILL">
<path fill="#D6C4EC" stroke="none" d="
M 404.6 124.65
Q 403.9 124 402.9 124 401.9 124 401.2 124.65 400.5 125.35 400.5 126.4 400.5 127.4 401.2 128.1 401.9 128.8 402.9 128.8 403.9 128.8 404.6 128.1 405.3 127.4 405.3 126.4 405.3 125.35 404.6 124.65 Z"/>
</g>

<g id="Layer0_0_MEMBER_3_FILL">
<path fill="#AC9DBD" stroke="none" d="
M 2.95 0.7
Q 2.35 0.1 1.55 0 0.7 -0.1 0 0.3 0.95 0.3 1.65 1 2.35 1.7 2.35 2.75 2.35 3.75 1.65 4.45
L 1.15 4.8
Q 2.25 4.8 2.95 4.1 3.65 3.4 3.65 2.4 3.65 1.4 2.95 0.7 Z"/>
</g>

<g id="Layer0_0_MEMBER_4_MEMBER_0_FILL">
<path fill="#ECE4F8" stroke="none" d="
M 394.95 141.35
Q 397.7 143.75 401.65 142.4 405.05 141.25 408.8 137.5 405 134.25 400.3 132.5 395.45 130.7 390.2 130.7 383.25 130.7 377.05 133.85 381.8 134.15 386.4 136.05 391.1 138 394.95 141.35 Z"/>
</g>

<g id="Layer0_0_MEMBER_4_MEMBER_1_FILL">
<path fill="#D6C4EC" stroke="none" d="
M 371 138.05
Q 376.45 138.45 383.7 142.9 387.8 145.45 395.8 151.1 406.3 158.55 415.6 145.95 412.95 141 408.8 137.5 405.05 141.25 401.65 142.4 397.7 143.75 394.95 141.35 391.1 138 386.4 136.05 381.8 134.15 377.05 133.85 374.05 135.45 371 138.05 Z"/>
</g>

<g id="Layer0_0_MEMBER_4_MEMBER_2_FILL">
<path fill="#643A7D" stroke="none" d="
M 391.6 188.2
Q 378.85 177.15 367.7 177.3 371.7 182.4 377.5 185.25 383.5 188.25 390.2 188.25
L 391.6 188.2 Z"/>
</g>

<g id="Layer0_0_MEMBER_4_MEMBER_3_FILL">
<path fill="#784B97" stroke="none" d="
M 375.2 172.85
Q 367.8 168.15 364.85 166.6 363.7 166 362.1 165.65 363.5 172.1 367.7 177.3 378.85 177.15 391.6 188.2 401.85 187.7 409.4 180.9 398.9 185.35 385.95 179.1 381.95 177.15 375.2 172.85 Z"/>
</g>

<g id="Layer0_0_MEMBER_4_MEMBER_4_FILL">
<path fill="#8C5BB5" stroke="none" d="
M 361.45 159.45
Q 361.45 162.4 362.1 165.65 363.7 166 364.85 166.6 367.8 168.15 375.2 172.85 381.95 177.15 385.95 179.1 398.9 185.35 409.4 180.9 416.15 174.8 418.25 166 414.85 169.35 410.45 170.65 399.1 174.45 386.95 169.1 379.9 166.05 366.45 156 364.55 154.6 361.85 154.75 361.45 157.15 361.45 159.45 Z"/>
</g>

<g id="Layer0_0_MEMBER_4_MEMBER_5_FILL">
<path fill="#A079C7" stroke="none" d="
M 373 147.05
Q 369.75 144.35 365.25 145.15 362.75 149.55 361.85 154.75 364.55 154.6 366.45 156 379.9 166.05 386.95 169.1 399.1 174.45 410.45 170.65 414.85 169.35 418.25 166 419 162.5 419 159.45 419 158.3 418.85 157.1 416.35 158.35 412.7 159.65 408.4 161.05 406.35 161.7 397.25 165.25 388.45 159.25 386.15 157.7 380.95 153.25 376.05 149 373 147.05 Z"/>
</g>

<g id="Layer0_0_MEMBER_4_MEMBER_6_FILL">
<path fill="#BA9ED9" stroke="none" d="
M 365.25 145.15
Q 369.75 144.35 373 147.05 376.05 149 380.95 153.25 386.15 157.7 388.45 159.25 397.25 165.25 406.35 161.7 408.4 161.05 412.7 159.65 416.35 158.35 418.85 157.1 418.4 151.15 415.6 145.95 406.3 158.55 395.8 151.1 387.8 145.45 383.7 142.9 376.45 138.45 371 138.05 367.6 141.15 365.25 145.15 Z"/>
</g>

<g id="Layer0_0_MEMBER_5_FILL">
<path fill="#000000" fill-opacity="0.2" stroke="none" d="
M 398.3 131.85
Q 399.45 135.75 399.45 139.9 399.45 151.8 391 160.25 382.6 168.7 370.7 168.7 366.5 168.7 362.6 167.55 365.25 176.6 372.8 182.4 380.5 188.25 390.2 188.25 402.15 188.25 410.55 179.8 419 171.4 419 159.45 419 149.75 413.15 142.05 407.4 134.5 398.3 131.85 Z"/>
</g>

<g id="Layer0_0_MEMBER_6_FILL">
<path fill="#FFFFFF" fill-opacity="0.6980392156862745" stroke="none" d="
M 7.5 0.7
Q 6.85 -0.15 5.35 0.05 3.85 0.2 2.35 1.35 0.85 2.45 0.25 3.9 -0.35 5.3 0.3 6.15 1 7 2.5 6.8 4 6.65 5.45 5.5 6.95 4.4 7.55 2.95 8.15 1.55 7.5 0.7 Z"/>
</g>
</defs>

<g transform="matrix( 10, 0, 0, 10, -3400.75,-1049.15) ">
<use xlink:href="#Layer0_0_MEMBER_0_FILL"/>
</g>

<g transform="matrix( 10, 0, 0, 10, 726.75,218.85) ">
<use xlink:href="#Layer0_0_MEMBER_1_FILL"/>
</g>

<g transform="matrix( 10, 0, 0, 10, -3400.75,-1049.15) ">
<use xlink:href="#Layer0_0_MEMBER_2_FILL"/>
</g>

<g transform="matrix( 10, 0, 0, 10, 616.25,190.85) ">
<use xlink:href="#Layer0_0_MEMBER_3_FILL"/>
</g>

<g transform="matrix( 10, 0, 0, 10, -3400.75,-1049.15) ">
<use xlink:href="#Layer0_0_MEMBER_4_MEMBER_0_FILL"/>
</g>

<g transform="matrix( 10, 0, 0, 10, -3400.75,-1049.15) ">
<use xlink:href="#Layer0_0_MEMBER_4_MEMBER_1_FILL"/>
</g>

<g transform="matrix( 10, 0, 0, 10, -3400.75,-1049.15) ">
<use xlink:href="#Layer0_0_MEMBER_4_MEMBER_2_FILL"/>
</g>

<g transform="matrix( 10, 0, 0, 10, -3400.75,-1049.15) ">
<use xlink:href="#Layer0_0_MEMBER_4_MEMBER_3_FILL"/>
</g>

<g transform="matrix( 10, 0, 0, 10, -3400.75,-1049.15) ">
<use xlink:href="#Layer0_0_MEMBER_4_MEMBER_4_FILL"/>
</g>

<g transform="matrix( 10, 0, 0, 10, -3400.75,-1049.15) ">
<use xlink:href="#Layer0_0_MEMBER_4_MEMBER_5_FILL"/>
</g>

<g transform="matrix( 10, 0, 0, 10, -3400.75,-1049.15) ">
<use xlink:href="#Layer0_0_MEMBER_4_MEMBER_6_FILL"/>
</g>

<g transform="matrix( 10, 0, 0, 10, -3400.75,-1049.15) ">
<use xlink:href="#Layer0_0_MEMBER_5_FILL"/>
</g>

<g transform="matrix( 10, 0, 0, 10, 359.75,316.35) ">
<use xlink:href="#Layer0_0_MEMBER_6_FILL"/>
</g>
</svg>
