
<svg xmlns="http://www.w3.org/2000/svg" version="1.1" xmlns:xlink="http://www.w3.org/1999/xlink" preserveAspectRatio="none" x="0px" y="0px" width="1024px" height="1024px" viewBox="0 0 1024 1024">
<defs>
<g id="Layer0_0_MEMBER_0_FILL">
<path fill="#C0DDDA" stroke="none" d="
M 38.95 238.55
Q 38.95 236.55 37.5 235.1 36.1 233.7 34.05 233.7 32.05 233.7 30.65 235.1 29.2 236.55 29.2 238.55 29.2 240.55 30.65 242 32.05 243.4 34.05 243.4 36.1 243.4 37.5 242 38.95 240.55 38.95 238.55 Z"/>
</g>

<g id="Layer0_0_MEMBER_1_FILL">
<path fill="#9AB1AF" stroke="none" d="
M 8.35 4.7
Q 8.35 3.05 7.3 1.7 6.3 0.4 4.7 0 6.05 1.45 6.05 3.35 6.05 5.4 4.65 6.8 3.2 8.25 1.2 8.25 0.7 8.25 0 8.05 1.4 9.6 3.5 9.6 5.5 9.6 6.95 8.15 8.35 6.75 8.35 4.7 Z"/>
</g>

<g id="Layer0_0_MEMBER_2_MEMBER_0_FILL">
<path fill="#70797A" stroke="none" d="
M 65.65 293.7
Q 63.9 286.85 59.35 285.75 58.95 285.7 49.15 284.85 42.75 284.3 39.25 282.9 43.3 288.05 49.1 290.95 55.15 293.95 61.9 293.95 63.55 293.95 65.65 293.7 Z"/>
</g>

<g id="Layer0_0_MEMBER_2_MEMBER_1_FILL">
<path fill="#839899" stroke="none" d="
M 33.15 265.2
Q 33.15 275.05 39.25 282.9 42.75 284.3 49.15 284.85 58.95 285.7 59.35 285.75 63.9 286.85 65.65 293.7 68.65 293.3 71.4 292.35 69.95 287.5 67.1 284.35 63.95 280.9 59.35 280.05 57.45 279.5 50.9 279.05 45.85 278.65 43.05 276.8 38 273 36.85 265.9 35.65 258.5 39.8 253.2 40.5 252.5 40.4 250.75 40.3 248.95 39.45 247.2 33.15 255.1 33.15 265.2 Z"/>
</g>

<g id="Layer0_0_MEMBER_2_MEMBER_2_FILL">
<path fill="#9FB5B5" stroke="none" d="
M 39.8 253.2
Q 35.65 258.5 36.85 265.9 38 273 43.05 276.8 45.85 278.65 50.9 279.05 57.45 279.5 59.35 280.05 63.95 280.9 67.1 284.35 69.95 287.5 71.4 292.35 74.95 291.1 78 289.05 75.7 286.7 73.45 282.4 71.05 277.4 69.9 275.15 67.6 271.5 60.55 271.5 51.5 271.5 48.75 270.3 47.05 269.4 45.5 266.2 44.2 263.25 46.4 258.1 48.7 252.65 47.95 249.95 47.3 245.8 44.45 242.35 41.65 244.45 39.45 247.2 40.3 248.95 40.4 250.75 40.5 252.5 39.8 253.2 Z"/>
</g>

<g id="Layer0_0_MEMBER_2_MEMBER_3_FILL">
<path fill="#AEC9C8" stroke="none" d="
M 52.3 238.05
Q 48 239.65 44.45 242.35 47.3 245.8 47.95 249.95 48.7 252.65 46.4 258.1 44.2 263.25 45.5 266.2 47.05 269.4 48.75 270.3 51.5 271.5 60.55 271.5 67.6 271.5 69.9 275.15 71.05 277.4 73.45 282.4 75.7 286.7 78 289.05 82.2 286.15 85.1 282.2 81.4 281.85 80.5 280.05 77.4 271.35 72.6 267.55 67.6 263.55 58.55 262.95 57.2 262.95 56 261.95 54.7 260.8 55.25 259.7 58.05 254.2 57.3 248 56.5 241.55 52.3 238.05 Z"/>
</g>

<g id="Layer0_0_MEMBER_2_MEMBER_4_FILL">
<path fill="#C0DDDA" stroke="none" d="
M 85.4 274.25
Q 83.75 273.6 83.75 271.9 82.15 263.85 76.75 260.9 74.95 259.95 64.25 257.25 63.1 256.7 62.4 255.65 61.8 254.7 61.8 254 63.75 249.55 63.9 244.85 64.05 239.35 61.45 236.4 56.8 236.45 52.3 238.05 56.5 241.55 57.3 248 58.05 254.2 55.25 259.7 54.7 260.8 56 261.95 57.2 262.95 58.55 262.95 67.6 263.55 72.6 267.55 77.4 271.35 80.5 280.05 81.4 281.85 85.1 282.2 87.8 278.5 89.2 274.3 86.9 274.8 85.4 274.25 Z"/>
</g>

<g id="Layer0_0_MEMBER_2_MEMBER_5_FILL">
<path fill="#D1EAE7" stroke="none" d="
M 88.1 265.35
Q 87 264.75 87 263.75 86.1 256.9 78.35 254.7 74.35 253.8 72.7 253.15 69.9 252.05 69.1 249.95 68.55 248.65 69.25 244.35 69.95 239.6 69.6 237.45 65.65 236.4 61.9 236.4
L 61.45 236.4
Q 64.05 239.35 63.9 244.85 63.75 249.55 61.8 254 61.8 254.7 62.4 255.65 63.1 256.7 64.25 257.25 74.95 259.95 76.75 260.9 82.15 263.85 83.75 271.9 83.75 273.6 85.4 274.25 86.9 274.8 89.2 274.3 90.6 270.35 90.65 266.05 89.1 265.95 88.1 265.35 Z"/>
</g>

<g id="Layer0_0_MEMBER_2_MEMBER_6_FILL">
<path fill="#E4F4F2" stroke="none" d="
M 90.7 265.2
Q 90.7 258 87.3 251.65 82.25 252.65 79.7 249.4 77.55 246.7 76.75 240.55 73.4 238.5 69.6 237.45 69.95 239.6 69.25 244.35 68.55 248.65 69.1 249.95 69.9 252.05 72.7 253.15 74.35 253.8 78.35 254.7 86.1 256.9 87 263.75 87 264.75 88.1 265.35 89.1 265.95 90.65 266.05
L 90.7 265.2 Z"/>
</g>

<g id="Layer0_0_MEMBER_2_MEMBER_7_FILL">
<path fill="#F3FFFD" stroke="none" d="
M 76.75 240.55
Q 77.55 246.7 79.7 249.4 82.25 252.65 87.3 251.65 83.55 244.6 76.75 240.55 Z"/>
</g>

<g id="Layer0_0_MEMBER_3_FILL">
<path fill="#000000" fill-opacity="0.2" stroke="none" d="
M 90.7 265.2
Q 90.7 255.5 84.85 247.8 79.05 240.2 70 237.55 71.15 241.55 71.15 245.65 71.15 257.55 62.7 265.95 54.3 274.4 42.4 274.4 38.2 274.4 34.3 273.25 36.95 282.3 44.5 288.1 52.2 293.95 61.9 293.95 73.8 293.95 82.25 285.5 90.7 277.1 90.7 265.2 Z"/>
</g>

<g id="Layer0_0_MEMBER_4_FILL">
<path fill="#FFFFFF" fill-opacity="0.788235294117647" stroke="none" d="
M 7.5 0.7
Q 6.85 -0.15 5.35 0.05 3.85 0.2 2.35 1.35 0.9 2.5 0.3 3.9 -0.3 5.3 0.35 6.15 1 7 2.5 6.8 4 6.6 5.5 5.5 7 4.35 7.55 2.95 8.15 1.55 7.5 0.7 Z"/>
</g>
</defs>

<g transform="matrix( 10, 0, 0, 10, -87.5,-2126.25) ">
<use xlink:href="#Layer0_0_MEMBER_0_FILL"/>
</g>

<g transform="matrix( 10, 0, 0, 10, 218,212.25) ">
<use xlink:href="#Layer0_0_MEMBER_1_FILL"/>
</g>

<g transform="matrix( 10, 0, 0, 10, -87.5,-2126.25) ">
<use xlink:href="#Layer0_0_MEMBER_2_MEMBER_0_FILL"/>
</g>

<g transform="matrix( 10, 0, 0, 10, -87.5,-2126.25) ">
<use xlink:href="#Layer0_0_MEMBER_2_MEMBER_1_FILL"/>
</g>

<g transform="matrix( 10, 0, 0, 10, -87.5,-2126.25) ">
<use xlink:href="#Layer0_0_MEMBER_2_MEMBER_2_FILL"/>
</g>

<g transform="matrix( 10, 0, 0, 10, -87.5,-2126.25) ">
<use xlink:href="#Layer0_0_MEMBER_2_MEMBER_3_FILL"/>
</g>

<g transform="matrix( 10, 0, 0, 10, -87.5,-2126.25) ">
<use xlink:href="#Layer0_0_MEMBER_2_MEMBER_4_FILL"/>
</g>

<g transform="matrix( 10, 0, 0, 10, -87.5,-2126.25) ">
<use xlink:href="#Layer0_0_MEMBER_2_MEMBER_5_FILL"/>
</g>

<g transform="matrix( 10, 0, 0, 10, -87.5,-2126.25) ">
<use xlink:href="#Layer0_0_MEMBER_2_MEMBER_6_FILL"/>
</g>

<g transform="matrix( 10, 0, 0, 10, -87.5,-2126.25) ">
<use xlink:href="#Layer0_0_MEMBER_2_MEMBER_7_FILL"/>
</g>

<g transform="matrix( 10, 0, 0, 10, -87.5,-2126.25) ">
<use xlink:href="#Layer0_0_MEMBER_3_FILL"/>
</g>

<g transform="matrix( 10, 0, 0, 10, 370,323.25) ">
<use xlink:href="#Layer0_0_MEMBER_4_FILL"/>
</g>
</svg>
