
<svg xmlns="http://www.w3.org/2000/svg" version="1.1" xmlns:xlink="http://www.w3.org/1999/xlink" preserveAspectRatio="none" x="0px" y="0px" width="1024px" height="1024px" viewBox="0 0 1024 1024">
<defs>
<linearGradient id="Gradient_1" gradientUnits="userSpaceOnUse" x1="171.1" y1="262.53749999999997" x2="199.79999999999998" y2="284.8625" spreadMethod="pad">
<stop  offset="0%" stop-color="#FC3D1D" stop-opacity="0.2"/>

<stop  offset="100%" stop-color="#FD8D25" stop-opacity="0.2"/>
</linearGradient>

<g id="Layer0_0_MEMBER_0_MEMBER_0_MEMBER_0_MEMBER_0_FILL">
<path fill="#FFF7C5" stroke="none" d="
M 173.55 242.2
Q 179.4 243.6 185.6 243.1 188.35 243.1 191.3 242 187.5 238.75 182.8 237 177.95 235.2 172.75 235.2 167.25 235.2 162.4 237.1 167.05 240.65 173.55 242.2 Z"/>
</g>

<g id="Layer0_0_MEMBER_0_MEMBER_0_MEMBER_0_MEMBER_1_FILL">
<path fill="#FEF2A1" stroke="none" d="
M 173.55 242.2
Q 167.05 240.65 162.4 237.1 157.5 239 153.35 242.75 162.6 250.05 172.3 251.5 183.2 253.15 193.7 247.15 194.45 246.65 195.35 246.3 193.5 243.9 191.3 242 188.35 243.1 185.6 243.1 179.4 243.6 173.55 242.2 Z"/>
</g>

<g id="Layer0_0_MEMBER_0_MEMBER_0_MEMBER_0_MEMBER_2_FILL">
<path fill="#FEEA7B" stroke="none" d="
M 148.2 249.1
Q 151.6 250.2 157.15 254.9 162.8 259.7 166.15 260.9 174.9 264.7 183.95 262.35 190.6 260.65 199.85 254.6 198.35 250.05 195.35 246.3 194.45 246.65 193.7 247.15 183.2 253.15 172.3 251.5 162.6 250.05 153.35 242.75 150.3 245.55 148.2 249.1 Z"/>
</g>

<g id="Layer0_0_MEMBER_0_MEMBER_0_MEMBER_0_MEMBER_3_FILL">
<path fill="#FDBD2E" stroke="none" d="
M 145.65 273.05
Q 148.6 281.65 155.9 287 163.4 292.45 172.75 292.45 178.5 292.45 184.05 290.15 177.7 290.5 171.05 288.5 164.65 286.55 158.85 282.8 156.4 281.45 152.25 277.95 147.95 274.4 145.65 273.05 Z"/>
</g>

<g id="Layer0_0_MEMBER_0_MEMBER_0_MEMBER_0_MEMBER_4_FILL">
<path fill="#FEC444" stroke="none" d="
M 152.25 277.95
Q 156.4 281.45 158.85 282.8 164.65 286.55 171.05 288.5 177.7 290.5 184.05 290.15 190.05 287.55 194.35 282.65 198.65 277.65 200.35 271.35 188.95 278.5 174.75 277.1 160.25 275.65 149.1 265.8 147.55 264.6 144.15 264.95 144.3 269 145.65 273.05 147.95 274.4 152.25 277.95 Z"/>
</g>

<g id="Layer0_0_MEMBER_0_MEMBER_0_MEMBER_0_MEMBER_5_FILL">
<path fill="#FEDD4F" stroke="none" d="
M 144.15 264.95
Q 147.55 264.6 149.1 265.8 160.25 275.65 174.75 277.1 188.95 278.5 200.35 271.35 201.4 267.45 201.4 263.8 201.4 259.1 199.85 254.6 190.6 260.65 183.95 262.35 174.9 264.7 166.15 260.9 162.8 259.7 157.15 254.9 151.6 250.2 148.2 249.1 144.1 255.9 144.1 263.8
L 144.15 264.95 Z"/>
</g>

<g id="Layer0_0_MEMBER_0_MEMBER_0_MEMBER_1_MEMBER_0_FILL">
<path fill="#E0A12C" stroke="none" d="
M 160.9 244.8
Q 159.9 245.8 159.9 247.25 159.9 248.7 160.9 249.7 161.9 250.7 163.3 250.7 164.75 250.7 165.75 249.7 166.75 248.7 166.75 247.25 166.75 245.85 165.75 244.8 164.75 243.8 163.3 243.8 161.9 243.8 160.9 244.8 Z"/>
</g>

<g id="Layer0_0_MEMBER_0_MEMBER_0_MEMBER_1_MEMBER_1_FILL">
<path fill="#FDBE37" stroke="none" d="
M 161.55 245.45
Q 160.8 246.2 160.8 247.25 160.8 248.3 161.55 249.05 162.25 249.8 163.3 249.8 164.35 249.8 165.1 249.05 165.85 248.3 165.85 247.25 165.85 246.2 165.1 245.45 164.35 244.7 163.3 244.7 162.25 244.7 161.55 245.45 Z"/>
</g>

<g id="Layer0_0_MEMBER_0_MEMBER_0_MEMBER_1_MEMBER_2_FILL">
<path fill="#E0A12C" stroke="none" d="
M 177.9 284.3
Q 177.9 282.9 176.9 281.85 175.9 280.85 174.45 280.85 173.05 280.85 172 281.85 171 282.9 171 284.3 171 285.75 172 286.75 173.05 287.75 174.45 287.75 175.9 287.75 176.9 286.75 177.9 285.75 177.9 284.3 Z"/>
</g>

<g id="Layer0_0_MEMBER_0_MEMBER_0_MEMBER_1_MEMBER_3_FILL">
<path fill="#FDBE37" stroke="none" d="
M 177 284.3
Q 177 283.25 176.25 282.55 175.5 281.8 174.45 281.8 173.4 281.8 172.7 282.55 171.95 283.25 171.95 284.3 171.95 285.35 172.7 286.1 173.4 286.85 174.45 286.85 175.5 286.85 176.25 286.1 177 285.35 177 284.3 Z"/>
</g>

<g id="Layer0_0_MEMBER_0_MEMBER_0_MEMBER_1_MEMBER_4_FILL">
<path fill="#E0A12C" stroke="none" d="
M 160.5 265.4
Q 160.5 263.35 159.05 261.85 157.55 260.4 155.5 260.4 153.45 260.4 152 261.85 150.55 263.35 150.55 265.4 150.55 267.45 152 268.9 153.5 270.35 155.5 270.35 157.55 270.35 159.05 268.9 160.5 267.45 160.5 265.4 Z"/>
</g>

<g id="Layer0_0_MEMBER_0_MEMBER_0_MEMBER_1_MEMBER_5_FILL">
<path fill="#FDBE37" stroke="none" d="
M 159.15 265.4
Q 159.15 263.85 158.1 262.8 157.05 261.75 155.5 261.75 154 261.75 152.95 262.8 151.85 263.85 151.85 265.4 151.85 266.9 152.95 267.95 154 269 155.5 269 157.05 269 158.1 267.95 159.15 266.9 159.15 265.4 Z"/>
</g>

<g id="Layer0_0_MEMBER_0_MEMBER_0_MEMBER_1_MEMBER_6_FILL">
<path fill="#E0A12C" stroke="none" d="
M 193.5 257.25
Q 193.5 255.2 192.05 253.75 190.6 252.3 188.55 252.3 186.5 252.3 185.05 253.75 183.6 255.2 183.6 257.25 183.6 259.3 185.05 260.8 186.5 262.25 188.55 262.25 190.6 262.25 192.05 260.8 193.5 259.3 193.5 257.25 Z"/>
</g>

<g id="Layer0_0_MEMBER_0_MEMBER_0_MEMBER_1_MEMBER_7_FILL">
<path fill="#FDBE37" stroke="none" d="
M 192.2 257.25
Q 192.2 255.75 191.15 254.7 190.05 253.6 188.55 253.6 187.05 253.6 186 254.7 184.9 255.75 184.9 257.25 184.9 258.8 186 259.85 187.05 260.9 188.55 260.9 190.05 260.9 191.15 259.85 192.2 258.8 192.2 257.25 Z"/>
</g>

<g id="Layer0_0_MEMBER_0_MEMBER_0_MEMBER_1_MEMBER_8_FILL">
<path fill="#E0A12C" stroke="none" d="
M 190.05 278.35
Q 190.05 276.9 189.05 275.85 188 274.8 186.5 274.8 185.05 274.8 184 275.85 182.95 276.9 182.95 278.35 182.95 279.8 184 280.85 185.05 281.9 186.5 281.9 188 281.9 189.05 280.85 190.05 279.8 190.05 278.35 Z"/>
</g>

<g id="Layer0_0_MEMBER_0_MEMBER_0_MEMBER_1_MEMBER_9_FILL">
<path fill="#FDBE37" stroke="none" d="
M 189.15 278.35
Q 189.15 277.25 188.35 276.5 187.6 275.75 186.5 275.75 185.45 275.75 184.7 276.5 183.9 277.25 183.9 278.35 183.9 279.45 184.7 280.2 185.45 280.95 186.5 280.95 187.6 280.95 188.35 280.2 189.15 279.45 189.15 278.35 Z"/>
</g>

<g id="Layer0_0_MEMBER_0_MEMBER_0_MEMBER_1_MEMBER_10_FILL">
<path fill="#E0A12C" stroke="none" d="
M 160.6 280.15
Q 159.5 280.15 158.75 280.95 157.95 281.7 157.95 282.8 157.95 283.9 158.75 284.65 159.5 285.45 160.6 285.45 161.7 285.45 162.45 284.65 163.2 283.9 163.2 282.8 163.2 281.7 162.45 280.95 161.7 280.15 160.6 280.15 Z"/>
</g>

<g id="Layer0_0_MEMBER_0_MEMBER_0_MEMBER_1_MEMBER_11_FILL">
<path fill="#FDBE37" stroke="none" d="
M 161.95 281.45
Q 161.4 280.85 160.6 280.85 159.8 280.85 159.2 281.45 158.65 282 158.65 282.8 158.65 283.6 159.2 284.15 159.8 284.75 160.6 284.75 161.4 284.75 161.95 284.15 162.5 283.6 162.5 282.8 162.5 282 161.95 281.45 Z"/>
</g>

<g id="Layer0_0_MEMBER_0_MEMBER_0_MEMBER_1_MEMBER_12_FILL">
<path fill="#E0A12C" stroke="none" d="
M 160.75 269.6
Q 160 270.35 160 271.45 160 272.55 160.75 273.3 161.5 274.1 162.6 274.1 163.7 274.1 164.45 273.3 165.25 272.55 165.25 271.45 165.25 270.35 164.45 269.6 163.7 268.8 162.6 268.8 161.5 268.8 160.75 269.6 Z"/>
</g>

<g id="Layer0_0_MEMBER_0_MEMBER_0_MEMBER_1_MEMBER_13_FILL">
<path fill="#FDBE37" stroke="none" d="
M 161.25 270.1
Q 160.7 270.65 160.7 271.45 160.7 272.25 161.25 272.8 161.8 273.4 162.6 273.4 163.4 273.4 164 272.8 164.55 272.25 164.55 271.45 164.55 270.65 164 270.1 163.4 269.5 162.6 269.5 161.8 269.5 161.25 270.1 Z"/>
</g>

<g id="Layer0_0_MEMBER_0_MEMBER_0_MEMBER_1_MEMBER_14_FILL">
<path fill="#E0A12C" stroke="none" d="
M 175.4 257.7
Q 175.4 256.6 174.6 255.8 173.85 255.05 172.75 255.05 171.65 255.05 170.9 255.8 170.1 256.6 170.1 257.7 170.1 258.8 170.9 259.55 171.65 260.3 172.75 260.3 173.85 260.3 174.6 259.55 175.4 258.8 175.4 257.7 Z"/>
</g>

<g id="Layer0_0_MEMBER_0_MEMBER_0_MEMBER_1_MEMBER_15_FILL">
<path fill="#FDBE37" stroke="none" d="
M 174.7 257.7
Q 174.7 256.9 174.1 256.3 173.55 255.75 172.75 255.75 171.95 255.75 171.35 256.3 170.8 256.9 170.8 257.7 170.8 258.5 171.35 259.05 171.95 259.6 172.75 259.6 173.55 259.6 174.1 259.05 174.7 258.5 174.7 257.7 Z"/>
</g>

<g id="Layer0_0_MEMBER_0_MEMBER_0_MEMBER_1_MEMBER_16_FILL">
<path fill="#E0A12C" stroke="none" d="
M 198.15 266.9
Q 198.15 265.8 197.4 265.05 196.65 264.25 195.55 264.25 194.45 264.25 193.7 265.05 192.9 265.8 192.9 266.9 192.9 268 193.7 268.75 194.45 269.55 195.55 269.55 196.65 269.55 197.4 268.75 198.15 268 198.15 266.9 Z"/>
</g>

<g id="Layer0_0_MEMBER_0_MEMBER_0_MEMBER_1_MEMBER_17_FILL">
<path fill="#FDBE37" stroke="none" d="
M 197.45 266.9
Q 197.45 266.1 196.9 265.5 196.35 264.95 195.55 264.95 194.75 264.95 194.15 265.5 193.6 266.1 193.6 266.9 193.6 267.7 194.15 268.25 194.75 268.85 195.55 268.85 196.35 268.85 196.9 268.25 197.45 267.7 197.45 266.9 Z"/>
</g>

<g id="Layer0_0_MEMBER_0_MEMBER_0_MEMBER_1_MEMBER_18_FILL">
<path fill="#E0A12C" stroke="none" d="
M 180.35 243
Q 180.35 241.9 179.55 241.15 178.8 240.35 177.7 240.35 176.6 240.35 175.85 241.15 175.05 241.9 175.05 243 175.05 244.1 175.85 244.85 176.6 245.6 177.7 245.6 178.8 245.6 179.55 244.85 180.35 244.1 180.35 243 Z"/>
</g>

<g id="Layer0_0_MEMBER_0_MEMBER_0_MEMBER_1_MEMBER_19_FILL">
<path fill="#FDBE37" stroke="none" d="
M 179.65 243
Q 179.65 242.2 179.1 241.6 178.55 241.05 177.7 241.05 176.9 241.05 176.35 241.6 175.75 242.2 175.75 243 175.75 243.8 176.35 244.35 176.9 244.95 177.7 244.95 178.5 244.95 179.1 244.35 179.65 243.8 179.65 243 Z"/>
</g>

<g id="Layer0_0_MEMBER_0_MEMBER_0_MEMBER_1_MEMBER_20_FILL">
<path fill="#E0A12C" stroke="none" d="
M 180.35 269.75
Q 180.35 268.65 179.55 267.9 178.8 267.1 177.7 267.1 176.6 267.1 175.85 267.9 175.05 268.65 175.05 269.75 175.05 270.85 175.85 271.6 176.6 272.35 177.7 272.35 178.8 272.35 179.55 271.6 180.35 270.85 180.35 269.75 Z"/>
</g>

<g id="Layer0_0_MEMBER_0_MEMBER_0_MEMBER_1_MEMBER_21_FILL">
<path fill="#FDBE37" stroke="none" d="
M 179.65 269.75
Q 179.65 268.95 179.1 268.35 178.55 267.8 177.7 267.8 176.9 267.8 176.35 268.35 175.75 268.95 175.75 269.75 175.75 270.55 176.35 271.1 176.9 271.65 177.7 271.65 178.5 271.65 179.1 271.1 179.65 270.55 179.65 269.75 Z"/>
</g>

<g id="Layer0_0_MEMBER_0_MEMBER_0_MEMBER_1_MEMBER_22_FILL">
<path fill="#E0A12C" stroke="none" d="
M 152.6 255.15
Q 152.6 254.05 151.8 253.3 151.05 252.5 149.95 252.5 148.85 252.5 148.1 253.3 147.3 254.05 147.3 255.15 147.3 256.25 148.1 257 148.85 257.8 149.95 257.8 151.05 257.8 151.8 257 152.6 256.25 152.6 255.15 Z"/>
</g>

<g id="Layer0_0_MEMBER_0_MEMBER_0_MEMBER_1_MEMBER_23_FILL">
<path fill="#FDBE37" stroke="none" d="
M 151.9 255.15
Q 151.9 254.35 151.3 253.75 150.75 253.2 149.95 253.2 149.15 253.2 148.6 253.75 148 254.35 148 255.15 148 255.95 148.6 256.5 149.15 257.1 149.95 257.1 150.75 257.1 151.3 256.5 151.9 255.95 151.9 255.15 Z"/>
</g>

<g id="Layer0_0_MEMBER_0_MEMBER_1_FILL">
<path fill="url(#Gradient_1)" stroke="none" d="
M 145.25 271.85
Q 147.9 280.9 155.4 286.6 163.1 292.45 172.75 292.45 184.6 292.45 193 284.05 201.4 275.7 201.4 263.8 201.4 254.15 195.55 246.5 189.85 238.95 180.8 236.35 181.95 240.55 181.95 244.35 181.95 256.25 173.55 264.6 165.15 273 153.3 273 149.15 273 145.25 271.85 Z"/>
</g>

<g id="Layer0_0_MEMBER_1_FILL">
<path fill="#FFFFFF" fill-opacity="0.6980392156862745" stroke="none" d="
M 7.5 0.7
Q 6.85 -0.15 5.3 0.05 3.8 0.2 2.35 1.35 0.85 2.5 0.25 3.85 -0.35 5.25 0.3 6.1 1 6.95 2.5 6.75 4 6.6 5.45 5.45 6.95 4.35 7.55 2.95 8.15 1.55 7.5 0.7 Z"/>
</g>
</defs>

<g transform="matrix( 10, 0, 0, 10, -1215.5,-2126.25) ">
<use xlink:href="#Layer0_0_MEMBER_0_MEMBER_0_MEMBER_0_MEMBER_0_FILL"/>
</g>

<g transform="matrix( 10, 0, 0, 10, -1215.5,-2126.25) ">
<use xlink:href="#Layer0_0_MEMBER_0_MEMBER_0_MEMBER_0_MEMBER_1_FILL"/>
</g>

<g transform="matrix( 10, 0, 0, 10, -1215.5,-2126.25) ">
<use xlink:href="#Layer0_0_MEMBER_0_MEMBER_0_MEMBER_0_MEMBER_2_FILL"/>
</g>

<g transform="matrix( 10, 0, 0, 10, -1215.5,-2126.25) ">
<use xlink:href="#Layer0_0_MEMBER_0_MEMBER_0_MEMBER_0_MEMBER_3_FILL"/>
</g>

<g transform="matrix( 10, 0, 0, 10, -1215.5,-2126.25) ">
<use xlink:href="#Layer0_0_MEMBER_0_MEMBER_0_MEMBER_0_MEMBER_4_FILL"/>
</g>

<g transform="matrix( 10, 0, 0, 10, -1215.5,-2126.25) ">
<use xlink:href="#Layer0_0_MEMBER_0_MEMBER_0_MEMBER_0_MEMBER_5_FILL"/>
</g>

<g transform="matrix( 10, 0, 0, 10, -1215.5,-2126.25) ">
<use xlink:href="#Layer0_0_MEMBER_0_MEMBER_0_MEMBER_1_MEMBER_0_FILL"/>
</g>

<g transform="matrix( 10, 0, 0, 10, -1215.5,-2126.25) ">
<use xlink:href="#Layer0_0_MEMBER_0_MEMBER_0_MEMBER_1_MEMBER_1_FILL"/>
</g>

<g transform="matrix( 10, 0, 0, 10, -1215.5,-2126.25) ">
<use xlink:href="#Layer0_0_MEMBER_0_MEMBER_0_MEMBER_1_MEMBER_2_FILL"/>
</g>

<g transform="matrix( 10, 0, 0, 10, -1215.5,-2126.25) ">
<use xlink:href="#Layer0_0_MEMBER_0_MEMBER_0_MEMBER_1_MEMBER_3_FILL"/>
</g>

<g transform="matrix( 10, 0, 0, 10, -1215.5,-2126.25) ">
<use xlink:href="#Layer0_0_MEMBER_0_MEMBER_0_MEMBER_1_MEMBER_4_FILL"/>
</g>

<g transform="matrix( 10, 0, 0, 10, -1215.5,-2126.25) ">
<use xlink:href="#Layer0_0_MEMBER_0_MEMBER_0_MEMBER_1_MEMBER_5_FILL"/>
</g>

<g transform="matrix( 10, 0, 0, 10, -1215.5,-2126.25) ">
<use xlink:href="#Layer0_0_MEMBER_0_MEMBER_0_MEMBER_1_MEMBER_6_FILL"/>
</g>

<g transform="matrix( 10, 0, 0, 10, -1215.5,-2126.25) ">
<use xlink:href="#Layer0_0_MEMBER_0_MEMBER_0_MEMBER_1_MEMBER_7_FILL"/>
</g>

<g transform="matrix( 10, 0, 0, 10, -1215.5,-2126.25) ">
<use xlink:href="#Layer0_0_MEMBER_0_MEMBER_0_MEMBER_1_MEMBER_8_FILL"/>
</g>

<g transform="matrix( 10, 0, 0, 10, -1215.5,-2126.25) ">
<use xlink:href="#Layer0_0_MEMBER_0_MEMBER_0_MEMBER_1_MEMBER_9_FILL"/>
</g>

<g transform="matrix( 10, 0, 0, 10, -1215.5,-2126.25) ">
<use xlink:href="#Layer0_0_MEMBER_0_MEMBER_0_MEMBER_1_MEMBER_10_FILL"/>
</g>

<g transform="matrix( 10, 0, 0, 10, -1215.5,-2126.25) ">
<use xlink:href="#Layer0_0_MEMBER_0_MEMBER_0_MEMBER_1_MEMBER_11_FILL"/>
</g>

<g transform="matrix( 10, 0, 0, 10, -1215.5,-2126.25) ">
<use xlink:href="#Layer0_0_MEMBER_0_MEMBER_0_MEMBER_1_MEMBER_12_FILL"/>
</g>

<g transform="matrix( 10, 0, 0, 10, -1215.5,-2126.25) ">
<use xlink:href="#Layer0_0_MEMBER_0_MEMBER_0_MEMBER_1_MEMBER_13_FILL"/>
</g>

<g transform="matrix( 10, 0, 0, 10, -1215.5,-2126.25) ">
<use xlink:href="#Layer0_0_MEMBER_0_MEMBER_0_MEMBER_1_MEMBER_14_FILL"/>
</g>

<g transform="matrix( 10, 0, 0, 10, -1215.5,-2126.25) ">
<use xlink:href="#Layer0_0_MEMBER_0_MEMBER_0_MEMBER_1_MEMBER_15_FILL"/>
</g>

<g transform="matrix( 10, 0, 0, 10, -1215.5,-2126.25) ">
<use xlink:href="#Layer0_0_MEMBER_0_MEMBER_0_MEMBER_1_MEMBER_16_FILL"/>
</g>

<g transform="matrix( 10, 0, 0, 10, -1215.5,-2126.25) ">
<use xlink:href="#Layer0_0_MEMBER_0_MEMBER_0_MEMBER_1_MEMBER_17_FILL"/>
</g>

<g transform="matrix( 10, 0, 0, 10, -1215.5,-2126.25) ">
<use xlink:href="#Layer0_0_MEMBER_0_MEMBER_0_MEMBER_1_MEMBER_18_FILL"/>
</g>

<g transform="matrix( 10, 0, 0, 10, -1215.5,-2126.25) ">
<use xlink:href="#Layer0_0_MEMBER_0_MEMBER_0_MEMBER_1_MEMBER_19_FILL"/>
</g>

<g transform="matrix( 10, 0, 0, 10, -1215.5,-2126.25) ">
<use xlink:href="#Layer0_0_MEMBER_0_MEMBER_0_MEMBER_1_MEMBER_20_FILL"/>
</g>

<g transform="matrix( 10, 0, 0, 10, -1215.5,-2126.25) ">
<use xlink:href="#Layer0_0_MEMBER_0_MEMBER_0_MEMBER_1_MEMBER_21_FILL"/>
</g>

<g transform="matrix( 10, 0, 0, 10, -1215.5,-2126.25) ">
<use xlink:href="#Layer0_0_MEMBER_0_MEMBER_0_MEMBER_1_MEMBER_22_FILL"/>
</g>

<g transform="matrix( 10, 0, 0, 10, -1215.5,-2126.25) ">
<use xlink:href="#Layer0_0_MEMBER_0_MEMBER_0_MEMBER_1_MEMBER_23_FILL"/>
</g>

<g transform="matrix( 10, 0, 0, 10, -1215.5,-2126.25) ">
<use xlink:href="#Layer0_0_MEMBER_0_MEMBER_1_FILL"/>
</g>

<g transform="matrix( 10, 0, 0, 10, 328.5,301.75) ">
<use xlink:href="#Layer0_0_MEMBER_1_FILL"/>
</g>
</svg>
