
<svg xmlns="http://www.w3.org/2000/svg" version="1.1" xmlns:xlink="http://www.w3.org/1999/xlink" preserveAspectRatio="none" x="0px" y="0px" width="1024px" height="1024px" viewBox="0 0 1024 1024">
<defs>
<g id="Layer0_0_MEMBER_0_MEMBER_0_FILL">
<path fill="#498FF1" stroke="none" d="
M 261.05 122.35
Q 261.05 120.75 259.95 119.65 258.8 118.55 257.2 118.55 255.6 118.55 254.5 119.65 253.35 120.8 253.35 122.35 253.35 123.95 254.5 125.1 255.6 126.2 257.2 126.2 258.8 126.2 259.95 125.1 261.05 123.95 261.05 122.35 Z"/>
</g>

<g id="Layer0_0_MEMBER_0_MEMBER_1_FILL">
<path fill="#3A73C2" stroke="none" d="
M 6.6 3.7
Q 6.6 2.4 5.8 1.35 5 0.35 3.75 0 4.8 1.15 4.8 2.65 4.8 4.25 3.65 5.35 2.55 6.5 0.95 6.5 0.45 6.5 0 6.35 1.1 7.55 2.75 7.55 4.35 7.55 5.5 6.45 6.6 5.3 6.6 3.7 Z"/>
</g>

<g id="Layer0_0_MEMBER_1_FILL">
<path fill="#498FF1" stroke="none" d="
M 267.05 187.8
Q 267.05 186.25 265.9 185.1 264.8 183.95 263.2 183.95 261.6 183.95 260.45 185.1 259.35 186.2 259.35 187.8 259.35 189.4 260.45 190.55 261.6 191.65 263.2 191.65 264.8 191.65 265.9 190.55 267.05 189.4 267.05 187.8 Z"/>
</g>

<g id="Layer0_0_MEMBER_2_FILL">
<path fill="#000000" fill-opacity="0.19607843137254902" stroke="none" d="
M 6.6 3.7
Q 6.6 2.35 5.8 1.35 5 0.3 3.75 0 4.8 1.15 4.8 2.65 4.8 4.25 3.7 5.35 2.55 6.5 0.95 6.5 0.45 6.5 0 6.35 1.1 7.55 2.75 7.55 4.35 7.55 5.5 6.45 6.6 5.3 6.6 3.7 Z"/>
</g>

<g id="Layer0_0_MEMBER_3_MEMBER_0_FILL">
<path fill="#498FF1" stroke="none" d="
M 309.95 125.25
Q 309.95 123.25 308.55 121.8 307.15 120.4 305.1 120.4 303.1 120.4 301.65 121.8 300.25 123.25 300.25 125.25 300.25 127.25 301.65 128.65 303.1 130.1 305.1 130.1 307.1 130.1 308.55 128.65 309.95 127.25 309.95 125.25 Z"/>
</g>

<g id="Layer0_0_MEMBER_3_MEMBER_1_FILL">
<path fill="#3A73C2" stroke="none" d="
M 8.4 4.7
Q 8.4 3.05 7.35 1.7 6.35 0.4 4.75 0 6.1 1.35 6.1 3.35 6.1 5.35 4.65 6.8 3.25 8.2 1.25 8.2 0.6 8.2 0 8.05 1.4 9.55 3.55 9.55 5.55 9.55 6.95 8.15 8.4 6.7 8.4 4.7 Z"/>
</g>

<g id="Layer0_0_MEMBER_4_FILL">
<path fill="#A7CBFD" stroke="none" d="
M 317.85 138.15
Q 317.85 136.15 316.4 134.7 315 133.25 313 133.25 311 133.25 309.55 134.7 308.1 136.15 308.1 138.15 308.1 140.15 309.55 141.55 311 143 313 143 315 143 316.4 141.55 317.85 140.15 317.85 138.15 Z"/>
</g>

<g id="Layer0_0_MEMBER_5_FILL">
<path fill="#000000" fill-opacity="0.19607843137254902" stroke="none" d="
M 8.4 4.7
Q 8.4 3.05 7.35 1.7 6.35 0.4 4.75 0 6.1 1.35 6.1 3.35 6.1 5.35 4.65 6.8 3.25 8.2 1.25 8.2 0.6 8.2 0 8.05 1.5 9.55 3.55 9.55 5.55 9.55 6.95 8.15 8.4 6.7 8.4 4.7 Z"/>
</g>

<g id="Layer0_0_MEMBER_6_FILL">
<path fill="#A7CBFD" stroke="none" d="
M 256.25 181.1
Q 256.25 179.1 254.8 177.65 253.4 176.2 251.4 176.2 249.4 176.2 247.95 177.65 246.5 179.1 246.5 181.1 246.5 183.1 247.95 184.5 249.4 185.95 251.4 185.95 253.4 185.95 254.8 184.5 256.25 183.1 256.25 181.1 Z"/>
</g>

<g id="Layer0_0_MEMBER_7_FILL">
<path fill="#000000" fill-opacity="0.19607843137254902" stroke="none" d="
M 8.35 4.7
Q 8.35 3.05 7.3 1.7 6.3 0.4 4.75 0 6.1 1.45 6.1 3.35 6.1 5.35 4.65 6.75 3.2 8.2 1.2 8.2 0.6 8.2 0 8.05 1.5 9.55 3.5 9.55 5.5 9.55 6.95 8.1 8.35 6.7 8.35 4.7 Z"/>
</g>

<g id="Layer0_0_MEMBER_8_MEMBER_0_FILL">
<path fill="#69AEFC" stroke="none" d="
M 286.55 135.1
Q 285.3 131.2 284.3 130.5 281.8 129.4 281.15 130.55 280.7 131.4 281.05 133.95 281.55 137.5 281.55 138.3 281.55 140.55 280.25 141.1 277.2 141.95 276.15 140.65 275.4 139.7 275.55 136.95 275.9 133.55 275.9 131.85 275.85 128.8 274.55 127.25
L 271.3 127.25
Q 269.85 130.5 269.15 131.85 267.9 134.15 266.4 132.15 264.75 131.15 264.25 128.35 262.35 129.55 260.85 130.9 263.2 131.95 263.95 134.6 263.95 134.95 262.65 138.7 261.7 141.3 263.15 142.75 265.3 144 267.55 141.4 269.8 138.7 271.3 139.45 274.05 140.4 273.3 145.1 272.35 151.1 272.9 152.5 273.75 153.3 275.05 154.05 276.7 154.95 277.8 154.95 280.05 154.05 280.45 150.55 280.85 147.15 281.85 146.8 283.45 146 284.9 147.1 285.6 147.65 287.35 149.95 290.6 154.25 294.1 152.5 295.95 151.55 296.35 148.35 296.8 144.4 297.35 143.55 298.2 141.85 301 143.65 303.9 145.5 304.65 144.35 305.7 143.6 306.4 142.35 302.95 133.3 294.75 128.3 293.9 128.4 293.25 128.9 292.7 129.45 293.6 131.05 294.35 132.4 295.7 133.75 297.05 136.45 295.3 138.85 293.45 141.45 290 140.3 287.75 138.95 286.55 135.1 Z"/>
</g>

<g id="Layer0_0_MEMBER_8_MEMBER_1_FILL">
<path fill="#2E60BE" stroke="none" d="
M 264 176.9
Q 265.45 177.85 267.8 178.95 265.3 177.05 264 176.9 Z"/>
</g>

<g id="Layer0_0_MEMBER_8_MEMBER_2_FILL">
<path fill="#2449A0" stroke="none" d="
M 272.7 180.65
Q 276.2 181.45 279.55 181.45 286.7 181.45 292.95 178.15 299.05 174.95 303.05 169.3 301.3 168.9 299.3 170.55 297.3 172.5 296.55 172.85 292.65 174.3 290.85 175 287.65 176.25 285.15 177.75 284.05 178.85 280.85 177.05 277.55 175.15 275.35 176.9 274 179.75 272.7 180.65 Z"/>
</g>

<g id="Layer0_0_MEMBER_8_MEMBER_3_FILL">
<path fill="#2E60BE" stroke="none" d="
M 282.4 172.55
Q 280.35 169.6 279.45 169.6 277.75 169.25 274.95 172.75 272.7 175.55 270.45 172.85 269.55 171.9 269.35 169.6 269.15 166.9 268.85 166.35 267.25 165.3 265.3 165.85 264.65 166 262.35 167.15 258.6 169.3 256.85 166.55 255.85 164.95 255 159.85 254.7 159 253.6 158.45 252.55 157.9 251.25 157.8 252.35 163.75 255.7 168.75 259.05 173.7 264 176.9 265.3 177.05 267.8 178.95 269.95 179.95 272.7 180.65 274 179.75 275.35 176.9 277.55 175.15 280.85 177.05 284.05 178.85 285.15 177.75 287.65 176.25 290.85 175 292.65 174.3 296.55 172.85 297.3 172.5 299.3 170.55 301.3 168.9 303.05 169.3 304.9 166.75 306.2 163.55 303.35 162.4 301.95 162.1 299.65 161.6 298.15 163.1 297.9 163.6 297.65 166.55 297.45 168.8 296.55 168.8 293.2 168.8 290.95 170 289.65 170.7 285.95 173.65 284.1 175.05 282.4 172.55 Z"/>
</g>

<g id="Layer0_0_MEMBER_8_MEMBER_4_FILL">
<path fill="#407CDA" stroke="none" d="
M 257.45 139.45
Q 256.75 138.1 255.1 137.6 250.8 144.5 250.8 152.7 250.8 155.35 251.25 157.8 252.55 157.9 253.6 158.45 254.7 159 255 159.85 255.85 164.95 256.85 166.55 258.6 169.3 262.35 167.15 264.65 166 265.3 165.85 267.25 165.3 268.85 166.35 269.15 166.9 269.35 169.6 269.55 171.9 270.45 172.85 272.7 175.55 274.95 172.75 277.75 169.25 279.45 169.6 280.35 169.6 282.4 172.55 284.1 175.05 285.95 173.65 289.65 170.7 290.95 170 293.2 168.8 296.55 168.8 297.45 168.8 297.65 166.55 297.9 163.6 298.15 163.1 299.65 161.6 301.95 162.1 303.35 162.4 306.2 163.55 308.35 158.2 308.35 152.7
L 308.35 152.65
Q 305.5 151.65 304.3 151.3 302.15 150.6 301.4 151.7 300.65 152.2 300.2 158.1 299.85 162.85 296.55 161.45 294.1 160.25 292.8 159.65 290.35 158.5 288.4 159 287.2 159.85 287.2 162.7 287.2 165.55 285.95 166.35 283.2 167.15 281.05 162.9 279.1 159 276.15 160.65 275.65 161 273.55 164.7 272.05 167.3 269.65 166.35 265.05 164.5 266.2 158.5 266.95 155.35 267.15 153.85 267.45 151.35 266.4 150.05 265.6 148.45 264.3 149.4 263.75 149.8 261.7 152.3 258 156.85 255.8 153.3 254.1 150.8 256.35 146.4 258.65 141.8 257.45 139.45 Z"/>
</g>

<g id="Layer0_0_MEMBER_8_MEMBER_5_FILL">
<path fill="#498FF1" stroke="none" d="
M 297.35 143.55
Q 296.8 144.4 296.35 148.35 295.95 151.55 294.1 152.5 290.6 154.25 287.35 149.95 285.6 147.65 284.9 147.1 283.45 146 281.85 146.8 280.85 147.15 280.45 150.55 280.05 154.05 277.8 154.95 276.7 154.95 275.05 154.05 273.75 153.3 272.9 152.5 272.35 151.1 273.3 145.1 274.05 140.4 271.3 139.45 269.8 138.7 267.55 141.4 265.3 144 263.15 142.75 261.7 141.3 262.65 138.7 263.95 134.95 263.95 134.6 263.2 131.95 260.85 130.9 257.5 133.75 255.1 137.6 256.75 138.1 257.45 139.45 258.65 141.8 256.35 146.4 254.1 150.8 255.8 153.3 258 156.85 261.7 152.3 263.75 149.8 264.3 149.4 265.6 148.45 266.4 150.05 267.45 151.35 267.15 153.85 266.95 155.35 266.2 158.5 265.05 164.5 269.65 166.35 272.05 167.3 273.55 164.7 275.65 161 276.15 160.65 279.1 159 281.05 162.9 283.2 167.15 285.95 166.35 287.2 165.55 287.2 162.7 287.2 159.85 288.4 159 290.35 158.5 292.8 159.65 294.1 160.25 296.55 161.45 299.85 162.85 300.2 158.1 300.65 152.2 301.4 151.7 302.15 150.6 304.3 151.3 305.5 151.65 308.35 152.65 308.25 147.15 306.4 142.35 305.7 143.6 304.65 144.35 303.9 145.5 301 143.65 298.2 141.85 297.35 143.55 Z"/>
</g>

<g id="Layer0_0_MEMBER_8_MEMBER_6_FILL">
<path fill="#DDECFE" stroke="none" d="
M 285.95 128.9
Q 288.45 130.75 288.45 125.35 284.1 123.95 279.55 123.95 277.7 123.95 276.15 124.15 276.5 125.45 277 128.05 279.3 126.35 281.15 126.65 282.55 126.9 285.95 128.9 Z"/>
</g>

<g id="Layer0_0_MEMBER_8_MEMBER_7_FILL">
<path fill="#A7CBFD" stroke="none" d="
M 284.3 130.5
Q 285.3 131.2 286.55 135.1 287.75 138.95 290 140.3 293.45 141.45 295.3 138.85 297.05 136.45 295.7 133.75 294.35 132.4 293.6 131.05 292.7 129.45 293.25 128.9 293.9 128.4 294.75 128.3 292 126.55 288.45 125.35 288.45 130.75 285.95 128.9 282.55 126.9 281.15 126.65 279.3 126.35 277 128.05 276.5 125.45 276.15 124.15 269.75 124.9 264.25 128.35 264.75 131.15 266.4 132.15 267.9 134.15 269.15 131.85 269.85 130.5 271.3 127.25
L 274.55 127.25
Q 275.85 128.8 275.9 131.85 275.9 133.55 275.55 136.95 275.4 139.7 276.15 140.65 277.2 141.95 280.25 141.1 281.55 140.55 281.55 138.3 281.55 137.5 281.05 133.95 280.7 131.4 281.15 130.55 281.8 129.4 284.3 130.5 Z"/>
</g>

<g id="Layer0_0_MEMBER_9_FILL">
<path fill="#000000" fill-opacity="0.2" stroke="none" d="
M 302.5 135.4
Q 296.75 127.85 287.65 125.2 288.8 129.1 288.8 133.25 288.8 145.2 280.35 153.6 271.95 162.05 260 162.05 256.05 162.05 251.95 160.85 254.45 169.4 262 175.35 269.95 181.55 279.55 181.55 291.5 181.55 299.9 173.15 308.35 164.7 308.35 152.8 308.35 143.1 302.5 135.4 Z"/>
</g>

<g id="Layer0_0_MEMBER_10_FILL">
<path fill="#FFFFFF" fill-opacity="0.6980392156862745" stroke="none" d="
M 7.5 0.7
Q 6.85 -0.15 5.35 0.05 3.8 0.25 2.35 1.35 0.85 2.45 0.25 3.9 -0.35 5.3 0.3 6.15 1 7 2.5 6.8 4 6.65 5.45 5.5 6.95 4.4 7.55 2.95 8.15 1.55 7.5 0.7 Z"/>
</g>
</defs>

<g transform="matrix( 10, 0, 0, 10, -2310,-1039) ">
<use xlink:href="#Layer0_0_MEMBER_0_MEMBER_0_FILL"/>
</g>

<g transform="matrix( 10, 0, 0, 10, 235,148) ">
<use xlink:href="#Layer0_0_MEMBER_0_MEMBER_1_FILL"/>
</g>

<g transform="matrix( 10, 0, 0, 10, -2310,-1039) ">
<use xlink:href="#Layer0_0_MEMBER_1_FILL"/>
</g>

<g transform="matrix( 10, 0, 0, 10, 294.5,802) ">
<use xlink:href="#Layer0_0_MEMBER_2_FILL"/>
</g>

<g transform="matrix( 10, 0, 0, 10, -2310,-1039) ">
<use xlink:href="#Layer0_0_MEMBER_3_MEMBER_0_FILL"/>
</g>

<g transform="matrix( 10, 0, 0, 10, 706.5,166.5) ">
<use xlink:href="#Layer0_0_MEMBER_3_MEMBER_1_FILL"/>
</g>

<g transform="matrix( 10, 0, 0, 10, -2310,-1039) ">
<use xlink:href="#Layer0_0_MEMBER_4_FILL"/>
</g>

<g transform="matrix( 10, 0, 0, 10, 785,295.5) ">
<use xlink:href="#Layer0_0_MEMBER_5_FILL"/>
</g>

<g transform="matrix( 10, 0, 0, 10, -2310,-1039) ">
<use xlink:href="#Layer0_0_MEMBER_6_FILL"/>
</g>

<g transform="matrix( 10, 0, 0, 10, 169,725) ">
<use xlink:href="#Layer0_0_MEMBER_7_FILL"/>
</g>

<g transform="matrix( 10, 0, 0, 10, -2310,-1038) ">
<use xlink:href="#Layer0_0_MEMBER_8_MEMBER_0_FILL"/>
</g>

<g transform="matrix( 10, 0, 0, 10, -2310,-1038) ">
<use xlink:href="#Layer0_0_MEMBER_8_MEMBER_1_FILL"/>
</g>

<g transform="matrix( 10, 0, 0, 10, -2310,-1038) ">
<use xlink:href="#Layer0_0_MEMBER_8_MEMBER_2_FILL"/>
</g>

<g transform="matrix( 10, 0, 0, 10, -2310,-1038) ">
<use xlink:href="#Layer0_0_MEMBER_8_MEMBER_3_FILL"/>
</g>

<g transform="matrix( 10, 0, 0, 10, -2310,-1038) ">
<use xlink:href="#Layer0_0_MEMBER_8_MEMBER_4_FILL"/>
</g>

<g transform="matrix( 10, 0, 0, 10, -2310,-1038) ">
<use xlink:href="#Layer0_0_MEMBER_8_MEMBER_5_FILL"/>
</g>

<g transform="matrix( 10, 0, 0, 10, -2310,-1038) ">
<use xlink:href="#Layer0_0_MEMBER_8_MEMBER_6_FILL"/>
</g>

<g transform="matrix( 10, 0, 0, 10, -2310,-1038) ">
<use xlink:href="#Layer0_0_MEMBER_8_MEMBER_7_FILL"/>
</g>

<g transform="matrix( 10, 0, 0, 10, -2310,-1039) ">
<use xlink:href="#Layer0_0_MEMBER_9_FILL"/>
</g>

<g transform="matrix( 10, 0, 0, 10, 296.5,286) ">
<use xlink:href="#Layer0_0_MEMBER_10_FILL"/>
</g>
</svg>
