
<svg xmlns="http://www.w3.org/2000/svg" version="1.1" xmlns:xlink="http://www.w3.org/1999/xlink" preserveAspectRatio="none" x="0px" y="0px" width="1024px" height="1024px" viewBox="0 0 1024 1024">
<defs>
<g id="Layer0_0_MEMBER_0_FILL">
<path fill="#ECB55E" stroke="none" d="
M 32.95 128
Q 32.95 126 31.55 124.55 30.15 123.15 28.1 123.15 26.1 123.15 24.65 124.55 23.25 126 23.25 128 23.25 130 24.65 131.4 26.1 132.85 28.1 132.85 30.1 132.85 31.55 131.4 32.95 130 32.95 128 Z"/>
</g>

<g id="Layer0_0_MEMBER_1_FILL">
<path fill="#BD914B" stroke="none" d="
M 8.4 4.7
Q 8.4 3.05 7.35 1.7 6.35 0.4 4.75 0 6.1 1.5 6.1 3.35 6.1 5.35 4.65 6.8 3.25 8.2 1.25 8.2 0.6 8.2 0 8.05 1.4 9.55 3.5 9.55 5.55 9.55 6.95 8.15 8.4 6.7 8.4 4.7 Z"/>
</g>

<g id="Layer0_0_MEMBER_2_FILL">
<path fill="#21B0C0" stroke="none" d="
M 90.95 183.7
Q 90.95 181.7 89.5 180.25 88.1 178.85 86.05 178.85 84.05 178.85 82.65 180.25 81.2 181.7 81.2 183.7 81.2 185.7 82.65 187.15 84.05 188.55 86.05 188.55 88.1 188.55 89.5 187.15 90.95 185.7 90.95 183.7 Z"/>
</g>

<g id="Layer0_0_MEMBER_3_FILL">
<path fill="#000000" fill-opacity="0.19607843137254902" stroke="none" d="
M 8.35 4.7
Q 8.35 3.05 7.3 1.7 6.3 0.4 4.75 0 6.05 1.45 6.05 3.35 6.05 5.4 4.65 6.8 3.25 8.2 1.2 8.2 0.6 8.2 0 8.05 1.35 9.55 3.5 9.55 5.55 9.55 6.95 8.15 8.35 6.75 8.35 4.7 Z"/>
</g>

<g id="Layer0_0_MEMBER_4_FILL">
<path fill="#FED58A" stroke="none" d="
M 36 183.45
Q 36 181.85 34.9 180.7 33.75 179.6 32.15 179.6 30.55 179.6 29.45 180.7 28.3 181.85 28.3 183.45 28.3 185.05 29.45 186.15 30.6 187.3 32.15 187.3 33.75 187.3 34.9 186.15 36 185.05 36 183.45 Z"/>
</g>

<g id="Layer0_0_MEMBER_5_FILL">
<path fill="#000000" fill-opacity="0.19607843137254902" stroke="none" d="
M 6.65 3.7
Q 6.65 2.35 5.8 1.35 5 0.3 3.75 0 4.8 1.05 4.8 2.65 4.8 4.25 3.7 5.35 2.55 6.5 0.95 6.5 0.45 6.5 0 6.35 1.1 7.55 2.8 7.55 4.4 7.55 5.5 6.4 6.65 5.3 6.65 3.7 Z"/>
</g>

<g id="Layer0_0_MEMBER_6_FILL">
<path fill="#21B0C0" stroke="none" d="
M 43.25 122.9
Q 43.25 121.35 42.1 120.2 41 119.1 39.4 119.1 37.8 119.1 36.65 120.2 35.55 121.3 35.55 122.9 35.55 124.5 36.65 125.65 37.8 126.75 39.4 126.75 41 126.75 42.1 125.65 43.25 124.5 43.25 122.9 Z"/>
</g>

<g id="Layer0_0_MEMBER_7_FILL">
<path fill="#000000" fill-opacity="0.19607843137254902" stroke="none" d="
M 6.6 3.75
Q 6.6 2.4 5.8 1.35 5 0.35 3.75 0 4.8 1.15 4.8 2.65 4.8 4.25 3.7 5.4 2.55 6.5 0.95 6.5
L 0 6.4
Q 1.2 7.6 2.75 7.6 4.35 7.6 5.5 6.45 6.6 5.35 6.6 3.75 Z"/>
</g>

<g id="Layer0_0_MEMBER_8_FILL">
<path fill="#FED58A" stroke="none" d="
M 50.8 119.35
Q 50.1 118.65 49.1 118.65 48.1 118.65 47.4 119.35 46.7 120.05 46.7 121.05 46.7 122.05 47.4 122.75 48.1 123.45 49.1 123.45 50.1 123.45 50.8 122.75 51.5 122.05 51.5 121.05 51.5 120.05 50.8 119.35 Z"/>
</g>

<g id="Layer0_0_MEMBER_9_FILL">
<path fill="#000000" fill-opacity="0.19607843137254902" stroke="none" d="
M 2.95 0.7
Q 2.35 0.1 1.55 0 0.7 -0.05 0 0.35 0.95 0.35 1.65 1.05 2.35 1.75 2.35 2.75 2.35 3.75 1.65 4.45
L 1.2 4.85
Q 2.2 4.85 2.95 4.1 3.65 3.45 3.65 2.4 3.65 1.4 2.95 0.7 Z"/>
</g>

<g id="Layer0_0_MEMBER_10_FILL">
<path fill="#FED58A" stroke="none" d="
M 28.55 138.8
Q 27.85 138.1 26.85 138.1 25.85 138.1 25.15 138.8 24.45 139.5 24.45 140.5 24.45 141.5 25.15 142.2 25.85 142.9 26.85 142.9 27.85 142.9 28.55 142.2 29.25 141.5 29.25 140.5 29.25 139.5 28.55 138.8 Z"/>
</g>

<g id="Layer0_0_MEMBER_11_FILL">
<path fill="#000000" fill-opacity="0.19607843137254902" stroke="none" d="
M 2.95 0.7
Q 2.35 0.1 1.55 0 0.7 -0.05 0 0.35 0.95 0.35 1.65 1.05 2.35 1.75 2.35 2.75 2.35 3.75 1.65 4.45
L 1.2 4.8
Q 2.15 4.9 2.95 4.1 3.65 3.4 3.65 2.4 3.65 1.4 2.95 0.7 Z"/>
</g>

<g id="Layer0_0_MEMBER_12_FILL">
<path fill="#21B0C0" stroke="none" d="
M 32.55 170.4
Q 31.9 169.7 30.85 169.7 29.85 169.7 29.15 170.4 28.45 171.1 28.45 172.1 28.45 173.1 29.15 173.8 29.85 174.5 30.85 174.5 31.9 174.5 32.55 173.8 33.25 173.1 33.25 172.1 33.25 171.1 32.55 170.4 Z"/>
</g>

<g id="Layer0_0_MEMBER_13_FILL">
<path fill="#000000" fill-opacity="0.19607843137254902" stroke="none" d="
M 2.9 0.7
Q 2.35 0.1 1.5 0 0.7 -0.05 0 0.35 0.95 0.35 1.65 1.05 2.35 1.75 2.35 2.75 2.35 3.75 1.65 4.45 1.35 4.75 1.15 4.85 2.2 4.85 2.9 4.15 3.6 3.45 3.6 2.45 3.6 1.4 2.9 0.7 Z"/>
</g>

<g id="Layer0_0_MEMBER_14_FILL">
<path fill="#ECB55E" stroke="none" d="
M 46 185.45
Q 45.3 184.75 44.3 184.75 43.3 184.75 42.6 185.45 41.9 186.15 41.9 187.2 41.9 188.2 42.6 188.9 43.3 189.6 44.3 189.6 45.3 189.6 46 188.9 46.7 188.2 46.7 187.2 46.7 186.15 46 185.45 Z"/>
</g>

<g id="Layer0_0_MEMBER_15_FILL">
<path fill="#000000" fill-opacity="0.19607843137254902" stroke="none" d="
M 3.65 2.45
Q 3.65 1.4 2.95 0.7 2.35 0.15 1.55 0.05 0.7 -0.05 0 0.35 0.95 0.35 1.65 1.05 2.35 1.75 2.35 2.75 2.35 3.8 1.65 4.45
L 1.2 4.85
Q 2.15 4.85 2.95 4.15 3.65 3.45 3.65 2.45 Z"/>
</g>

<g id="Layer0_0_MEMBER_16_FILL">
<path fill="#21B0C0" stroke="none" d="
M 60.15 187.4
Q 59.45 186.7 58.45 186.7 57.4 186.7 56.7 187.4 56 188.1 56 189.15 56 190.15 56.7 190.85 57.4 191.55 58.45 191.55 59.45 191.55 60.15 190.85 60.85 190.15 60.85 189.15 60.85 188.1 60.15 187.4 Z"/>
</g>

<g id="Layer0_0_MEMBER_17_FILL">
<path fill="#000000" fill-opacity="0.19607843137254902" stroke="none" d="
M 3.6 2.45
Q 3.6 1.45 2.9 0.75 2.35 0.15 1.5 0.05 0.7 -0.05 0 0.35 0.95 0.35 1.65 1.05 2.35 1.75 2.35 2.8 2.35 3.8 1.65 4.5
L 1.15 4.85
Q 2.25 4.85 2.9 4.15 3.6 3.45 3.6 2.45 Z"/>
</g>

<g id="Layer0_0_MEMBER_18_FILL">
<path fill="#21B0C0" stroke="none" d="
M 93 171.6
Q 92.3 170.9 91.3 170.9 90.25 170.9 89.55 171.6 88.85 172.3 88.85 173.35 88.85 174.35 89.55 175.05 90.25 175.75 91.3 175.75 92.3 175.75 93 175.05 93.7 174.35 93.7 173.35 93.7 172.3 93 171.6 Z"/>
</g>

<g id="Layer0_0_MEMBER_19_FILL">
<path fill="#000000" fill-opacity="0.19607843137254902" stroke="none" d="
M 3.65 2.45
Q 3.65 1.4 2.95 0.7 2.35 0.15 1.55 0.05 0.7 -0.05 0 0.35 0.95 0.35 1.65 1.05 2.35 1.75 2.35 2.75 2.35 3.8 1.65 4.45 1.35 4.75 1.15 4.85 2.15 4.85 2.95 4.15 3.65 3.45 3.65 2.45 Z"/>
</g>

<g id="Layer0_0_MEMBER_20_FILL">
<path fill="#ECB55E" stroke="none" d="
M 79.8 122.6
Q 79.1 123.3 79.1 124.3 79.1 125.3 79.8 126 80.5 126.7 81.5 126.7 82.55 126.7 83.2 126 83.9 125.3 83.9 124.3 83.9 123.3 83.2 122.6 82.55 121.9 81.5 121.9 80.5 121.9 79.8 122.6 Z"/>
</g>

<g id="Layer0_0_MEMBER_21_FILL">
<path fill="#D2B857" stroke="none" d="
M 81.4 122.8
L 81.65 123.05
Q 81.8 122.95 81.65 122.8 81.5 122.65 81.4 122.8 Z"/>
</g>

<g id="Layer0_0_MEMBER_22_FILL">
<path fill="#000000" fill-opacity="0.19607843137254902" stroke="none" d="
M 2.9 0.7
Q 2.35 0.1 1.5 0 0.7 -0.05 0 0.35 0.95 0.35 1.65 1.05 2.35 1.75 2.35 2.75 2.35 3.75 1.65 4.45
L 1.15 4.8
Q 2.2 4.9 2.9 4.1 3.6 3.4 3.6 2.4 3.6 1.4 2.9 0.7 Z"/>
</g>

<g id="Layer0_0_MEMBER_23_FILL">
<path fill="#FED58A" stroke="none" d="
M 89.75 131.9
Q 89.05 131.2 88.05 131.2 87.05 131.2 86.35 131.9 85.65 132.6 85.65 133.6 85.65 134.65 86.35 135.3 87.05 136 88.05 136 89.05 136 89.75 135.3 90.45 134.6 90.45 133.6 90.45 132.6 89.75 131.9 Z"/>
</g>

<g id="Layer0_0_MEMBER_24_FILL">
<path fill="#000000" fill-opacity="0.19607843137254902" stroke="none" d="
M 2.95 0.7
Q 2.35 0.1 1.55 0 0.7 -0.05 0 0.35 0.95 0.35 1.65 1.05 2.35 1.75 2.35 2.75 2.35 3.75 1.65 4.45 1.35 4.75 1.15 4.85 2.15 4.85 2.95 4.15 3.65 3.45 3.65 2.45 3.65 1.4 2.95 0.7 Z"/>
</g>

<g id="Layer0_0_MEMBER_25_MEMBER_0_FILL">
<path fill="#D5953B" stroke="none" d="
M 31.25 155
Q 32.95 154.65 33.55 155.2 43.6 165.25 59.1 166.1 73.75 166.9 86.45 159.25 87.35 158.95 88.35 158.95 88.7 157.15 88.75 155.55 75.05 163.55 61.65 163.5 47.05 163.4 35.15 153.55 33.8 151.75 31.35 151.75 31.2 153.05 31.2 154.3
L 31.25 155 Z"/>
</g>

<g id="Layer0_0_MEMBER_25_MEMBER_1_FILL">
<path fill="#FED58A" stroke="none" d="
M 32.85 163.85
Q 34.75 169.3 38.85 173.8 51.25 170.45 61 169.5 73.4 168.3 83.6 170.75 85.45 168.1 86.6 165.15 68.55 167.5 59.35 167.85 43.4 168.5 32.85 163.85 Z"/>
</g>

<g id="Layer0_0_MEMBER_25_MEMBER_2_FILL">
<path fill="#ECB55E" stroke="none" d="
M 31.25 155
Q 31.3 159.35 32.85 163.85 43.4 168.5 59.35 167.85 68.55 167.5 86.6 165.15 87.85 162.1 88.35 158.95 87.35 158.95 86.45 159.25 73.75 166.9 59.1 166.1 43.6 165.25 33.55 155.2 32.95 154.65 31.25 155 Z"/>
</g>

<g id="Layer0_0_MEMBER_25_MEMBER_3_FILL">
<path fill="#ECB55E" stroke="none" d="
M 38.85 173.8
L 40.1 175.1
Q 65.8 168.35 81.3 173.6 82.75 172 83.6 170.75 73.4 168.3 61 169.5 51.25 170.45 38.85 173.8 Z"/>
</g>

<g id="Layer0_0_MEMBER_25_MEMBER_4_FILL">
<path fill="#D5953B" stroke="none" d="
M 62.3 181.05
Q 59.4 181.25 57.2 182.95 59.9 183.1 60 183.1 63.65 183.1 67.55 182.05 64.95 180.9 62.3 181.05 Z"/>
</g>

<g id="Layer0_0_MEMBER_25_MEMBER_5_FILL">
<path fill="#ECB55E" stroke="none" d="
M 62.2 179.15
Q 57.15 179.55 53.15 182.25 54.8 182.7 57.2 182.95 59.4 181.25 62.3 181.05 64.95 180.9 67.55 182.05 69.05 181.65 71.45 180.7 67.15 178.75 62.2 179.15 Z"/>
</g>

<g id="Layer0_0_MEMBER_25_MEMBER_6_FILL">
<path fill="#FED58A" stroke="none" d="
M 62.2 179.15
Q 67.15 178.75 71.45 180.7 74 179.6 76.25 178 69.7 175.55 61.5 176.2 54.05 176.85 46.9 179.9 49.9 181.45 53.15 182.25 57.15 179.55 62.2 179.15 Z"/>
</g>

<g id="Layer0_0_MEMBER_25_MEMBER_7_FILL">
<path fill="#21B0C0" stroke="none" d="
M 61.5 176.2
Q 69.7 175.55 76.25 178 78.95 176.15 81.3 173.6 65.8 168.35 40.1 175.1 43.2 178.05 46.9 179.9 54.05 176.85 61.5 176.2 Z"/>
</g>

<g id="Layer0_0_MEMBER_25_MEMBER_8_FILL">
<path fill="#21B0C0" stroke="none" d="
M 38.4 145.45
Q 35.95 144.45 32.95 144.45 31.65 148 31.35 151.75 33.8 151.75 35.15 153.55 47.05 163.4 61.65 163.5 75.05 163.55 88.75 155.55
L 88.75 154.3
Q 88.75 148.8 86.7 143.6 79.05 154.8 63.7 153.05 58.1 152.4 50.55 149.9 50.05 149.7 38.4 145.45 Z"/>
</g>

<g id="Layer0_0_MEMBER_25_MEMBER_9_FILL">
<path fill="#D5953B" stroke="none" d="
M 44.1 131.6
Q 43.75 131.3 43.05 131.05 40.65 132.85 38.75 134.95 55.45 140.55 60.7 141.25 73.15 142.9 82 135.85 81 134.65 80.5 134.2 73.6 140 62.55 139 52 138 44.1 131.6 Z"/>
</g>

<g id="Layer0_0_MEMBER_25_MEMBER_10_FILL">
<path fill="#ECB55E" stroke="none" d="
M 49.2 140.2
Q 57.05 142.5 61.65 143.25 76.1 145.7 83.8 138.25 83 137 82 135.85 73.15 142.9 60.7 141.25 55.45 140.55 38.75 134.95 37.8 136 37.15 136.9 40.1 137.55 49.2 140.2 Z"/>
</g>

<g id="Layer0_0_MEMBER_25_MEMBER_11_FILL">
<path fill="#FED58A" stroke="none" d="
M 47.15 144.9
Q 55.35 147.05 60.95 147.75 77.2 149.85 85.95 141.95 85 140.05 83.8 138.25 76.1 145.7 61.65 143.25 57.05 142.5 49.2 140.2 40.1 137.55 37.15 136.9 35.5 139 34.25 141.5 38.25 142.45 47.15 144.9 Z"/>
</g>

<g id="Layer0_0_MEMBER_25_MEMBER_12_FILL">
<path fill="#ECB55E" stroke="none" d="
M 60.95 147.75
Q 55.35 147.05 47.15 144.9 38.25 142.45 34.25 141.5 33.35 143.3 32.95 144.45 35.95 144.45 38.4 145.45 50.05 149.7 50.55 149.9 58.1 152.4 63.7 153.05 79.05 154.8 86.7 143.6
L 85.95 141.95
Q 77.2 149.85 60.95 147.75 Z"/>
</g>

<g id="Layer0_0_MEMBER_25_MEMBER_13_FILL">
<path fill="#21B0C0" stroke="none" d="
M 54.9 132.25
Q 53.25 131.65 47.55 128.4 45.25 129.5 43.05 131.05 43.75 131.3 44.1 131.6 52 138 62.55 139 73.6 140 80.5 134.2 77.8 131.45 74.45 129.45 72.6 130.1 69 131 65.15 131.9 63.65 132.4 59.2 133.8 54.9 132.25 Z"/>
</g>

<g id="Layer0_0_MEMBER_25_MEMBER_14_FILL">
<path fill="#D5953B" stroke="none" d="
M 74.45 129.45
Q 72.5 128.3 69.9 127.3 66.8 130.6 60.6 130 56.85 129.65 50.05 127.35 48.7 127.85 47.55 128.4 53.25 131.65 54.9 132.25 59.2 133.8 63.65 132.4 65.15 131.9 69 131 72.6 130.1 74.45 129.45 Z"/>
</g>

<g id="Layer0_0_MEMBER_25_MEMBER_15_FILL">
<path fill="#FED58A" stroke="none" d="
M 61.45 128.6
Q 65.1 129.15 67 126.4 63.5 125.55 60 125.55 57.65 125.55 55.1 125.95 58.85 128.15 61.45 128.6 Z"/>
</g>

<g id="Layer0_0_MEMBER_25_MEMBER_16_FILL">
<path fill="#ECB55E" stroke="none" d="
M 69.9 127.3
Q 68.6 126.8 67 126.4 65.1 129.15 61.45 128.6 58.85 128.15 55.1 125.95 52.7 126.35 50.05 127.35 56.85 129.65 60.6 130 66.8 130.6 69.9 127.3 Z"/>
</g>

<g id="Layer0_0_MEMBER_25_MEMBER_17_FILL">
<path fill="#0E7271" stroke="none" d="
M 38.6 148.2
Q 38.15 147.85 37.45 147.85 36.8 147.85 36.3 148.2 35.85 148.5 35.85 148.95 35.85 149.4 36.3 149.75 36.8 150.05 37.45 150.05 38.15 150.05 38.6 149.75 39.1 149.4 39.1 148.95 39.1 148.5 38.6 148.2 Z"/>
</g>

<g id="Layer0_0_MEMBER_25_MEMBER_18_FILL">
<path fill="#0E7271" stroke="none" d="
M 52.95 153.5
Q 52.95 153.05 52.45 152.75 52 152.4 51.3 152.4 50.65 152.4 50.15 152.75 49.7 153.05 49.7 153.5 49.7 153.95 50.15 154.3 50.65 154.6 51.3 154.6 52 154.6 52.45 154.3 52.95 153.95 52.95 153.5 Z"/>
</g>

<g id="Layer0_0_MEMBER_25_MEMBER_19_FILL">
<path fill="#0E7271" stroke="none" d="
M 69.2 157.45
Q 69.2 157 68.75 156.7 68.25 156.35 67.6 156.35 66.95 156.35 66.45 156.7 65.95 157 65.95 157.45 65.95 157.9 66.45 158.2 66.9 158.5 67.6 158.5 68.3 158.5 68.75 158.2 69.2 157.9 69.2 157.45 Z"/>
</g>

<g id="Layer0_0_MEMBER_25_MEMBER_20_FILL">
<path fill="#0E7271" stroke="none" d="
M 80.7 153.7
Q 80.05 153.7 79.55 154.05 79.05 154.35 79.05 154.8 79.05 155.25 79.55 155.6 80.05 155.9 80.7 155.9 81.35 155.9 81.85 155.6 82.3 155.25 82.3 154.8 82.3 154.35 81.85 154.05 81.35 153.7 80.7 153.7 Z"/>
</g>

<g id="Layer0_0_MEMBER_25_MEMBER_21_FILL">
<path fill="#0E7271" stroke="none" d="
M 63.85 135.3
Q 63.85 134.85 63.4 134.55 62.95 134.25 62.25 134.25 61.55 134.25 61.1 134.55 60.6 134.85 60.6 135.3 60.6 135.75 61.1 136.1 61.6 136.4 62.25 136.4 62.9 136.4 63.4 136.1 63.85 135.75 63.85 135.3 Z"/>
</g>

<g id="Layer0_0_MEMBER_25_MEMBER_22_FILL">
<path fill="#0E7271" stroke="none" d="
M 72.15 134.7
Q 72.15 134.3 71.6 134.3 71 134.3 71 134.7 71 135.1 71.6 135.1 72.15 135.1 72.15 134.7 Z"/>
</g>

<g id="Layer0_0_MEMBER_25_MEMBER_23_FILL">
<path fill="#0E7271" stroke="none" d="
M 76.25 132.05
Q 76.25 131.7 75.65 131.7 75.1 131.7 75.1 132.05 75.1 132.45 75.65 132.45 76.25 132.45 76.25 132.05 Z"/>
</g>

<g id="Layer0_0_MEMBER_25_MEMBER_24_FILL">
<path fill="#0E7271" stroke="none" d="
M 51.55 134.35
Q 51.55 134 50.95 134 50.4 134 50.4 134.35 50.4 134.75 50.95 134.75 51.55 134.75 51.55 134.35 Z"/>
</g>

<g id="Layer0_0_MEMBER_25_MEMBER_25_FILL">
<path fill="#0E7271" stroke="none" d="
M 54.45 133.5
Q 54.45 133.1 53.9 133.1 53.3 133.1 53.3 133.5 53.3 133.85 53.9 133.85 54.45 133.85 54.45 133.5 Z"/>
</g>

<g id="Layer0_0_MEMBER_25_MEMBER_26_FILL">
<path fill="#0E7271" stroke="none" d="
M 46.65 130.75
Q 46.65 130.4 46.1 130.4 45.5 130.4 45.5 130.75 45.5 131.15 46.1 131.15 46.65 131.15 46.65 130.75 Z"/>
</g>

<g id="Layer0_0_MEMBER_25_MEMBER_27_FILL">
<path fill="#0E7271" stroke="none" d="
M 35.95 151.85
Q 35.95 151.45 35.35 151.45 34.8 151.45 34.8 151.85 34.8 152.25 35.35 152.25 35.95 152.25 35.95 151.85 Z"/>
</g>

<g id="Layer0_0_MEMBER_25_MEMBER_28_FILL">
<path fill="#0E7271" stroke="none" d="
M 41.25 148.75
Q 41.25 149.15 41.8 149.15 42.4 149.15 42.4 148.75 42.4 148.35 41.8 148.35 41.25 148.35 41.25 148.75 Z"/>
</g>

<g id="Layer0_0_MEMBER_25_MEMBER_29_FILL">
<path fill="#0E7271" stroke="none" d="
M 45.05 153.65
Q 45.05 153.25 44.45 153.25 43.9 153.25 43.9 153.65 43.9 154 44.45 154 45.05 154 45.05 153.65 Z"/>
</g>

<g id="Layer0_0_MEMBER_25_MEMBER_30_FILL">
<path fill="#0E7271" stroke="none" d="
M 42.4 155.35
Q 42.4 154.95 41.8 154.95 41.25 154.95 41.25 155.35 41.25 155.7 41.8 155.7 42.4 155.7 42.4 155.35 Z"/>
</g>

<g id="Layer0_0_MEMBER_25_MEMBER_31_FILL">
<path fill="#0E7271" stroke="none" d="
M 52.75 156.6
Q 52.75 156.25 52.2 156.25 51.6 156.25 51.6 156.6 51.6 157 52.2 157 52.75 157 52.75 156.6 Z"/>
</g>

<g id="Layer0_0_MEMBER_25_MEMBER_32_FILL">
<path fill="#0E7271" stroke="none" d="
M 49.45 150.85
Q 49.45 150.45 48.85 150.45 48.3 150.45 48.3 150.85 48.3 151.25 48.85 151.25 49.45 151.25 49.45 150.85 Z"/>
</g>

<g id="Layer0_0_MEMBER_25_MEMBER_33_FILL">
<path fill="#0E7271" stroke="none" d="
M 52.15 159
Q 52.15 158.6 51.6 158.6 51 158.6 51 159 51 159.4 51.6 159.4 52.15 159.4 52.15 159 Z"/>
</g>

<g id="Layer0_0_MEMBER_25_MEMBER_34_FILL">
<path fill="#0E7271" stroke="none" d="
M 59.7 158
Q 59.7 157.6 59.1 157.6 58.55 157.6 58.55 158 58.55 158.35 59.1 158.35 59.7 158.35 59.7 158 Z"/>
</g>

<g id="Layer0_0_MEMBER_25_MEMBER_35_FILL">
<path fill="#0E7271" stroke="none" d="
M 64.6 162.3
Q 64.6 161.95 64 161.95 63.4 161.95 63.4 162.3 63.4 162.7 64 162.7 64.6 162.7 64.6 162.3 Z"/>
</g>

<g id="Layer0_0_MEMBER_25_MEMBER_36_FILL">
<path fill="#0E7271" stroke="none" d="
M 54.75 173.05
Q 54.75 172.65 54.15 172.65 53.6 172.65 53.6 173.05 53.6 173.45 54.15 173.45 54.75 173.45 54.75 173.05 Z"/>
</g>

<g id="Layer0_0_MEMBER_25_MEMBER_37_FILL">
<path fill="#0E7271" stroke="none" d="
M 43.25 175.7
Q 43.25 175.3 42.7 175.3 42.1 175.3 42.1 175.7 42.1 176.05 42.7 176.05 43.25 176.05 43.25 175.7 Z"/>
</g>

<g id="Layer0_0_MEMBER_25_MEMBER_38_FILL">
<path fill="#0E7271" stroke="none" d="
M 61.45 174.05
Q 61.45 173.65 60.9 173.65 60.3 173.65 60.3 174.05 60.3 174.45 60.9 174.45 61.45 174.45 61.45 174.05 Z"/>
</g>

<g id="Layer0_0_MEMBER_25_MEMBER_39_FILL">
<path fill="#0E7271" stroke="none" d="
M 63.5 174.75
Q 63.5 174.35 62.9 174.35 62.35 174.35 62.35 174.75 62.35 175.1 62.9 175.1 63.5 175.1 63.5 174.75 Z"/>
</g>

<g id="Layer0_0_MEMBER_25_MEMBER_40_FILL">
<path fill="#0E7271" stroke="none" d="
M 67.75 174.45
Q 67.75 174.1 67.2 174.1 66.6 174.1 66.6 174.45 66.6 174.85 67.2 174.85 67.75 174.85 67.75 174.45 Z"/>
</g>

<g id="Layer0_0_MEMBER_25_MEMBER_41_FILL">
<path fill="#0E7271" stroke="none" d="
M 67 172.35
Q 67 172 66.45 172 65.85 172 65.85 172.35 65.85 172.75 66.45 172.75 67 172.75 67 172.35 Z"/>
</g>

<g id="Layer0_0_MEMBER_25_MEMBER_42_FILL">
<path fill="#0E7271" stroke="none" d="
M 73.6 172.75
Q 73.6 172.4 73 172.4 72.45 172.4 72.45 172.75 72.45 173.15 73 173.15 73.6 173.15 73.6 172.75 Z"/>
</g>

<g id="Layer0_0_MEMBER_25_MEMBER_43_FILL">
<path fill="#0E7271" stroke="none" d="
M 76.65 176.25
Q 76.65 175.85 76.1 175.85 75.5 175.85 75.5 176.25 75.5 176.6 76.1 176.6 76.65 176.6 76.65 176.25 Z"/>
</g>

<g id="Layer0_0_MEMBER_25_MEMBER_44_FILL">
<path fill="#0E7271" stroke="none" d="
M 50.1 174.4
Q 50.1 174 49.55 174 48.95 174 48.95 174.4 48.95 174.8 49.55 174.8 50.1 174.8 50.1 174.4 Z"/>
</g>

<g id="Layer0_0_MEMBER_25_MEMBER_45_FILL">
<path fill="#0E7271" stroke="none" d="
M 56.55 175.75
Q 56.55 175.35 56 175.35 55.4 175.35 55.4 175.75 55.4 176.15 56 176.15 56.55 176.15 56.55 175.75 Z"/>
</g>

<g id="Layer0_0_MEMBER_25_MEMBER_46_FILL">
<path fill="#0E7271" stroke="none" d="
M 56.65 174.5
Q 56.65 174.15 56.05 174.15 55.5 174.15 55.5 174.5 55.5 174.9 56.05 174.9 56.65 174.9 56.65 174.5 Z"/>
</g>

<g id="Layer0_0_MEMBER_25_MEMBER_47_FILL">
<path fill="#0E7271" stroke="none" d="
M 65 159.2
Q 65 158.8 64.4 158.8 63.85 158.8 63.85 159.2 63.85 159.6 64.4 159.6 65 159.6 65 159.2 Z"/>
</g>

<g id="Layer0_0_MEMBER_25_MEMBER_48_FILL">
<path fill="#0E7271" stroke="none" d="
M 71.1 154.8
Q 71.1 154.4 70.5 154.4 69.95 154.4 69.95 154.8 69.95 155.15 70.5 155.15 71.1 155.15 71.1 154.8 Z"/>
</g>

<g id="Layer0_0_MEMBER_25_MEMBER_49_FILL">
<path fill="#0E7271" stroke="none" d="
M 72.8 155.65
Q 72.8 155.3 72.2 155.3 71.65 155.3 71.65 155.65 71.65 156.05 72.2 156.05 72.8 156.05 72.8 155.65 Z"/>
</g>

<g id="Layer0_0_MEMBER_25_MEMBER_50_FILL">
<path fill="#0E7271" stroke="none" d="
M 86.85 146.65
Q 86.85 146.25 86.25 146.25 85.7 146.25 85.7 146.65 85.7 147.05 86.25 147.05 86.85 147.05 86.85 146.65 Z"/>
</g>

<g id="Layer0_0_MEMBER_25_MEMBER_51_FILL">
<path fill="#0E7271" stroke="none" d="
M 85.6 151.6
Q 85.6 151.2 85.05 151.2 84.45 151.2 84.45 151.6 84.45 152 85.05 152 85.6 152 85.6 151.6 Z"/>
</g>

<g id="Layer0_0_MEMBER_25_MEMBER_52_FILL">
<path fill="#0E7271" stroke="none" d="
M 80.4 157.6
Q 79.55 157.6 79.55 158 79.55 158.35 80.4 158.35 81.3 158.35 81.3 158 81.3 157.6 80.4 157.6 Z"/>
</g>

<g id="Layer0_0_MEMBER_25_MEMBER_53_FILL">
<path fill="#0E7271" stroke="none" d="
M 39.7 152.15
Q 38.6 152.15 38.6 152.85 38.6 153.55 39.7 153.55 40.75 153.55 40.75 152.85 40.75 152.15 39.7 152.15 Z"/>
</g>

<g id="Layer0_0_MEMBER_25_MEMBER_54_FILL">
<path fill="#0E7271" stroke="none" d="
M 45.5 150.55
Q 45.5 149.85 44.45 149.85 43.35 149.85 43.35 150.55 43.35 150.85 43.7 151.05 44 151.25 44.45 151.25 45.5 151.25 45.5 150.55 Z"/>
</g>

<g id="Layer0_0_MEMBER_25_MEMBER_55_FILL">
<path fill="#0E7271" stroke="none" d="
M 47.05 157.8
Q 47.05 157.1 46 157.1 44.95 157.1 44.95 157.8 44.95 158.5 46 158.5 47.05 158.5 47.05 157.8 Z"/>
</g>

<g id="Layer0_0_MEMBER_25_MEMBER_56_FILL">
<path fill="#0E7271" stroke="none" d="
M 57.05 156
Q 57.05 155.7 56.75 155.5 56.4 155.25 56 155.25 55.55 155.25 55.25 155.5 54.9 155.7 54.9 156 54.9 156.25 55.25 156.5 55.55 156.7 56 156.7 56.4 156.7 56.75 156.5 57.05 156.25 57.05 156 Z"/>
</g>

<g id="Layer0_0_MEMBER_25_MEMBER_57_FILL">
<path fill="#0E7271" stroke="none" d="
M 60.5 161.35
Q 60.5 161.05 60.2 160.85 59.9 160.6 59.45 160.6 59 160.6 58.7 160.85 58.35 161.05 58.35 161.35 58.35 161.65 58.7 161.85 59 162.05 59.45 162.05 60.5 162.05 60.5 161.35 Z"/>
</g>

<g id="Layer0_0_MEMBER_25_MEMBER_58_FILL">
<path fill="#0E7271" stroke="none" d="
M 63.4 156.25
Q 63.4 155.55 62.35 155.55 61.3 155.55 61.3 156.25 61.3 156.95 62.35 156.95 63.4 156.95 63.4 156.25 Z"/>
</g>

<g id="Layer0_0_MEMBER_25_MEMBER_59_FILL">
<path fill="#0E7271" stroke="none" d="
M 77.45 155.1
Q 77.45 154.4 76.4 154.4 75.35 154.4 75.35 155.1 75.35 155.8 76.4 155.8 77.45 155.8 77.45 155.1 Z"/>
</g>

<g id="Layer0_0_MEMBER_25_MEMBER_60_FILL">
<path fill="#0E7271" stroke="none" d="
M 85.85 148.4
Q 85.5 148.2 85.1 148.2 84.65 148.2 84.35 148.4 84 148.65 84 148.9 84 149.2 84.35 149.45 84.65 149.65 85.1 149.65 85.5 149.65 85.85 149.45 86.15 149.2 86.15 148.9 86.15 148.65 85.85 148.4 Z"/>
</g>

<g id="Layer0_0_MEMBER_25_MEMBER_61_FILL">
<path fill="#0E7271" stroke="none" d="
M 86.35 154.95
Q 86.35 154.65 86.05 154.45 85.75 154.2 85.3 154.2 84.85 154.2 84.55 154.45 84.25 154.65 84.25 154.95 84.25 155.2 84.55 155.45 84.85 155.65 85.3 155.65 85.75 155.65 86.05 155.45 86.35 155.2 86.35 154.95 Z"/>
</g>

<g id="Layer0_0_MEMBER_25_MEMBER_62_FILL">
<path fill="#0E7271" stroke="none" d="
M 70.85 160.7
Q 70.85 160 69.75 160 68.7 160 68.7 160.7 68.7 161 69 161.2 69.35 161.4 69.75 161.4 70.85 161.4 70.85 160.7 Z"/>
</g>

<g id="Layer0_0_MEMBER_25_MEMBER_63_FILL">
<path fill="#0E7271" stroke="none" d="
M 73.75 131.85
Q 73.75 131.55 73.45 131.35 73.1 131.15 72.7 131.15 71.6 131.15 71.6 131.85 71.6 132.55 72.7 132.55 73.1 132.55 73.45 132.35 73.75 132.15 73.75 131.85 Z"/>
</g>

<g id="Layer0_0_MEMBER_25_MEMBER_64_FILL">
<path fill="#0E7271" stroke="none" d="
M 68.3 137.1
Q 68.3 136.8 68 136.6 67.7 136.35 67.25 136.35 66.8 136.35 66.5 136.6 66.2 136.8 66.2 137.1 66.2 137.8 67.25 137.8 68.3 137.8 68.3 137.1 Z"/>
</g>

<g id="Layer0_0_MEMBER_25_MEMBER_65_FILL">
<path fill="#0E7271" stroke="none" d="
M 68.4 132.95
Q 68.4 132.25 67.3 132.25 66.25 132.25 66.25 132.95 66.25 133.65 67.3 133.65 68.4 133.65 68.4 132.95 Z"/>
</g>

<g id="Layer0_0_MEMBER_25_MEMBER_66_FILL">
<path fill="#0E7271" stroke="none" d="
M 76.75 134.55
Q 76.75 134.3 76.45 134.05 76.1 133.85 75.65 133.85 75.25 133.85 74.9 134.05 74.6 134.3 74.6 134.55 74.6 134.85 74.9 135.1 75.25 135.3 75.65 135.3 76.1 135.3 76.45 135.1 76.75 134.85 76.75 134.55 Z"/>
</g>

<g id="Layer0_0_MEMBER_25_MEMBER_67_FILL">
<path fill="#0E7271" stroke="none" d="
M 50.4 131.4
Q 50.4 131.1 50.1 130.9 49.8 130.65 49.35 130.65 48.9 130.65 48.6 130.9 48.25 131.1 48.25 131.4 48.25 132.1 49.35 132.1 50.4 132.1 50.4 131.4 Z"/>
</g>

<g id="Layer0_0_MEMBER_25_MEMBER_68_FILL">
<path fill="#0E7271" stroke="none" d="
M 57.25 135.85
Q 57.25 135.15 56.2 135.15 55.15 135.15 55.15 135.85 55.15 136.55 56.2 136.55 57.25 136.55 57.25 135.85 Z"/>
</g>

<g id="Layer0_0_MEMBER_25_MEMBER_69_FILL">
<path fill="#0E7271" stroke="none" d="
M 46.55 175.15
Q 46.55 174.85 46.25 174.65 45.9 174.45 45.5 174.45 44.4 174.45 44.4 175.15 44.4 175.85 45.5 175.85 45.9 175.85 46.25 175.65 46.55 175.45 46.55 175.15 Z"/>
</g>

<g id="Layer0_0_MEMBER_25_MEMBER_70_FILL">
<path fill="#0E7271" stroke="none" d="
M 53.95 175.7
Q 53.95 175.4 53.65 175.2 53.3 174.95 52.85 174.95 52.45 174.95 52.1 175.2 51.8 175.4 51.8 175.7 51.8 176 52.1 176.2 52.45 176.4 52.85 176.4 53.95 176.4 53.95 175.7 Z"/>
</g>

<g id="Layer0_0_MEMBER_25_MEMBER_71_FILL">
<path fill="#0E7271" stroke="none" d="
M 64.85 172.9
Q 64.85 172.2 63.8 172.2 62.75 172.2 62.75 172.9 62.75 173.6 63.8 173.6 64.85 173.6 64.85 172.9 Z"/>
</g>

<g id="Layer0_0_MEMBER_25_MEMBER_72_FILL">
<path fill="#0E7271" stroke="none" d="
M 73.2 175.1
Q 73.2 174.8 72.9 174.6 72.6 174.35 72.15 174.35 71.7 174.35 71.4 174.6 71.05 174.8 71.05 175.1 71.05 175.35 71.4 175.6 71.7 175.8 72.15 175.8 72.6 175.8 72.9 175.6 73.2 175.35 73.2 175.1 Z"/>
</g>

<g id="Layer0_0_MEMBER_25_MEMBER_73_FILL">
<path fill="#0E7271" stroke="none" d="
M 70.85 172.75
Q 70.85 172.5 70.55 172.25 70.2 172.05 69.75 172.05 69.3 172.05 69 172.25 68.7 172.5 68.7 172.75 68.7 173.05 69 173.3 69.3 173.5 69.75 173.5 70.2 173.5 70.55 173.3 70.85 173.05 70.85 172.75 Z"/>
</g>

<g id="Layer0_0_MEMBER_25_MEMBER_74_FILL">
<path fill="#0E7271" stroke="none" d="
M 76.95 174.4
Q 76.95 173.9 76.2 173.9 75.45 173.9 75.45 174.4 75.45 174.9 76.2 174.9 76.95 174.9 76.95 174.4 Z"/>
</g>

<g id="Layer0_0_MEMBER_25_MEMBER_75_FILL">
<path fill="#0E7271" stroke="none" d="
M 59.4 173.05
Q 59.4 172.55 58.65 172.55 57.85 172.55 57.85 173.05 57.85 173.55 58.65 173.55 59.4 173.55 59.4 173.05 Z"/>
</g>

<g id="Layer0_0_MEMBER_25_MEMBER_76_FILL">
<path fill="#0E7271" stroke="none" d="
M 45.95 177
Q 45.95 176.45 45.2 176.45 44.45 176.45 44.45 177 44.45 177.2 44.7 177.35 44.9 177.5 45.2 177.5 45.95 177.5 45.95 177 Z"/>
</g>

<g id="Layer0_0_MEMBER_25_MEMBER_77_FILL">
<path fill="#0E7271" stroke="none" d="
M 49 178.05
Q 49 177.55 48.25 177.55 47.5 177.55 47.5 178.05 47.5 178.55 48.25 178.55 49 178.55 49 178.05 Z"/>
</g>

<g id="Layer0_0_MEMBER_25_MEMBER_78_FILL">
<path fill="#0E7271" stroke="none" d="
M 48.75 159.2
Q 48.75 158.7 48 158.7 47.2 158.7 47.2 159.2 47.2 159.7 48 159.7 48.75 159.7 48.75 159.2 Z"/>
</g>

<g id="Layer0_0_MEMBER_25_MEMBER_79_FILL">
<path fill="#0E7271" stroke="none" d="
M 48.8 156.2
Q 48.8 155.7 48.05 155.7 47.3 155.7 47.3 156.2 47.3 156.7 48.05 156.7 48.8 156.7 48.8 156.2 Z"/>
</g>

<g id="Layer0_0_MEMBER_25_MEMBER_80_FILL">
<path fill="#0E7271" stroke="none" d="
M 35.05 148.35
Q 35.05 147.85 34.3 147.85 33.5 147.85 33.5 148.35 33.5 148.85 34.3 148.85 35.05 148.85 35.05 148.35 Z"/>
</g>

<g id="Layer0_0_MEMBER_25_MEMBER_81_FILL">
<path fill="#0E7271" stroke="none" d="
M 59.05 154.8
Q 59.05 154.3 58.3 154.3 57.55 154.3 57.55 154.8 57.55 155.3 58.3 155.3 59.05 155.3 59.05 154.8 Z"/>
</g>

<g id="Layer0_0_MEMBER_25_MEMBER_82_FILL">
<path fill="#0E7271" stroke="none" d="
M 75.15 158.1
Q 75.15 157.6 74.4 157.6 73.6 157.6 73.6 158.1 73.6 158.6 74.4 158.6 75.15 158.6 75.15 158.1 Z"/>
</g>

<g id="Layer0_0_MEMBER_25_MEMBER_83_FILL">
<path fill="#0E7271" stroke="none" d="
M 77.85 157.3
Q 77.85 156.8 77.1 156.8 76.35 156.8 76.35 157.3 76.35 157.8 77.1 157.8 77.85 157.8 77.85 157.3 Z"/>
</g>

<g id="Layer0_0_MEMBER_25_MEMBER_84_FILL">
<path fill="#0E7271" stroke="none" d="
M 83.35 151.15
Q 83.35 150.6 82.6 150.6 81.85 150.6 81.85 151.15 81.85 151.65 82.6 151.65 83.35 151.65 83.35 151.15 Z"/>
</g>

<g id="Layer0_0_MEMBER_25_MEMBER_85_FILL">
<path fill="#0E7271" stroke="none" d="
M 87.75 152.6
Q 87.75 152.1 87 152.1 86.25 152.1 86.25 152.6 86.25 153.15 87 153.15 87.75 153.15 87.75 152.6 Z"/>
</g>

<g id="Layer0_0_MEMBER_25_MEMBER_86_FILL">
<path fill="#0E7271" stroke="none" d="
M 54.85 161.3
Q 54.85 160.8 54.1 160.8 53.35 160.8 53.35 161.3 53.35 161.8 54.1 161.8 54.85 161.8 54.85 161.3 Z"/>
</g>

<g id="Layer0_0_MEMBER_25_MEMBER_87_FILL">
<path fill="#0E7271" stroke="none" d="
M 35.75 146.5
Q 35.75 146.2 35.45 146 35.1 145.75 34.65 145.75 34.25 145.75 33.9 146 33.6 146.2 33.6 146.5 33.6 146.75 33.9 147 34.25 147.2 34.65 147.2 35.1 147.2 35.45 147 35.75 146.75 35.75 146.5 Z"/>
</g>

<g id="Layer0_0_MEMBER_26_FILL">
<path fill="#000000" fill-opacity="0.2" stroke="none" d="
M 68.05 126.7
Q 69.2 130.6 69.2 134.75 69.2 146.7 60.8 155.1 52.35 163.55 40.45 163.55 36.3 163.55 32.4 162.4 35 171.45 42.6 177.25 50.3 183.1 60 183.1 71.9 183.1 80.35 174.65 88.75 166.25 88.75 154.3 88.75 144.6 82.9 136.9 77.1 129.35 68.05 126.7 Z"/>
</g>

<g id="Layer0_0_MEMBER_27_FILL">
<path fill="#FFFFFF" fill-opacity="0.6980392156862745" stroke="none" d="
M 7.5 0.7
Q 6.85 -0.15 5.35 0.05 3.85 0.2 2.35 1.35 0.85 2.5 0.25 3.9 -0.3 5.3 0.35 6.15 1 7 2.5 6.8 4 6.6 5.5 5.5 6.95 4.4 7.55 2.95 8.15 1.55 7.5 0.7 Z"/>
</g>
</defs>

<g transform="matrix( 10, 0, 0, 10, -73,-1038.95) ">
<use xlink:href="#Layer0_0_MEMBER_0_FILL"/>
</g>

<g transform="matrix( 10, 0, 0, 10, 172.5,194.05) ">
<use xlink:href="#Layer0_0_MEMBER_1_FILL"/>
</g>

<g transform="matrix( 10, 0, 0, 10, -73,-1038.95) ">
<use xlink:href="#Layer0_0_MEMBER_2_FILL"/>
</g>

<g transform="matrix( 10, 0, 0, 10, 753,751.05) ">
<use xlink:href="#Layer0_0_MEMBER_3_FILL"/>
</g>

<g transform="matrix( 10, 0, 0, 10, -73,-1038.95) ">
<use xlink:href="#Layer0_0_MEMBER_4_FILL"/>
</g>

<g transform="matrix( 10, 0, 0, 10, 221,758.55) ">
<use xlink:href="#Layer0_0_MEMBER_5_FILL"/>
</g>

<g transform="matrix( 10, 0, 0, 10, -73,-1038.95) ">
<use xlink:href="#Layer0_0_MEMBER_6_FILL"/>
</g>

<g transform="matrix( 10, 0, 0, 10, 293.5,153.05) ">
<use xlink:href="#Layer0_0_MEMBER_7_FILL"/>
</g>

<g transform="matrix( 10, 0, 0, 10, -73,-1038.95) ">
<use xlink:href="#Layer0_0_MEMBER_8_FILL"/>
</g>

<g transform="matrix( 10, 0, 0, 10, 405.5,147.55) ">
<use xlink:href="#Layer0_0_MEMBER_9_FILL"/>
</g>

<g transform="matrix( 10, 0, 0, 10, -73,-1038.95) ">
<use xlink:href="#Layer0_0_MEMBER_10_FILL"/>
</g>

<g transform="matrix( 10, 0, 0, 10, 183.5,342.05) ">
<use xlink:href="#Layer0_0_MEMBER_11_FILL"/>
</g>

<g transform="matrix( 10, 0, 0, 10, -73,-1038.95) ">
<use xlink:href="#Layer0_0_MEMBER_12_FILL"/>
</g>

<g transform="matrix( 10, 0, 0, 10, 224,658.05) ">
<use xlink:href="#Layer0_0_MEMBER_13_FILL"/>
</g>

<g transform="matrix( 10, 0, 0, 10, -73,-1038.95) ">
<use xlink:href="#Layer0_0_MEMBER_14_FILL"/>
</g>

<g transform="matrix( 10, 0, 0, 10, 357.5,808.55) ">
<use xlink:href="#Layer0_0_MEMBER_15_FILL"/>
</g>

<g transform="matrix( 10, 0, 0, 10, -73,-1038.95) ">
<use xlink:href="#Layer0_0_MEMBER_16_FILL"/>
</g>

<g transform="matrix( 10, 0, 0, 10, 499.5,827.55) ">
<use xlink:href="#Layer0_0_MEMBER_17_FILL"/>
</g>

<g transform="matrix( 10, 0, 0, 10, -73,-1038.95) ">
<use xlink:href="#Layer0_0_MEMBER_18_FILL"/>
</g>

<g transform="matrix( 10, 0, 0, 10, 828,670.05) ">
<use xlink:href="#Layer0_0_MEMBER_19_FILL"/>
</g>

<g transform="matrix( 10, 0, 0, 10, -73,-1038.95) ">
<use xlink:href="#Layer0_0_MEMBER_20_FILL"/>
</g>

<g transform="matrix( 10, 0, 0, 10, -73,-1038.95) ">
<use xlink:href="#Layer0_0_MEMBER_21_FILL"/>
</g>

<g transform="matrix( 10, 0, 0, 10, 730.5,180.05) ">
<use xlink:href="#Layer0_0_MEMBER_22_FILL"/>
</g>

<g transform="matrix( 10, 0, 0, 10, -73,-1038.95) ">
<use xlink:href="#Layer0_0_MEMBER_23_FILL"/>
</g>

<g transform="matrix( 10, 0, 0, 10, 795,273.05) ">
<use xlink:href="#Layer0_0_MEMBER_24_FILL"/>
</g>

<g transform="matrix( 10, 0, 0, 10, -73,-1038.95) ">
<use xlink:href="#Layer0_0_MEMBER_25_MEMBER_0_FILL"/>
</g>

<g transform="matrix( 10, 0, 0, 10, -73,-1038.95) ">
<use xlink:href="#Layer0_0_MEMBER_25_MEMBER_1_FILL"/>
</g>

<g transform="matrix( 10, 0, 0, 10, -73,-1038.95) ">
<use xlink:href="#Layer0_0_MEMBER_25_MEMBER_2_FILL"/>
</g>

<g transform="matrix( 10, 0, 0, 10, -73,-1038.95) ">
<use xlink:href="#Layer0_0_MEMBER_25_MEMBER_3_FILL"/>
</g>

<g transform="matrix( 10, 0, 0, 10, -73,-1038.95) ">
<use xlink:href="#Layer0_0_MEMBER_25_MEMBER_4_FILL"/>
</g>

<g transform="matrix( 10, 0, 0, 10, -73,-1038.95) ">
<use xlink:href="#Layer0_0_MEMBER_25_MEMBER_5_FILL"/>
</g>

<g transform="matrix( 10, 0, 0, 10, -73,-1038.95) ">
<use xlink:href="#Layer0_0_MEMBER_25_MEMBER_6_FILL"/>
</g>

<g transform="matrix( 10, 0, 0, 10, -73,-1038.95) ">
<use xlink:href="#Layer0_0_MEMBER_25_MEMBER_7_FILL"/>
</g>

<g transform="matrix( 10, 0, 0, 10, -73,-1038.95) ">
<use xlink:href="#Layer0_0_MEMBER_25_MEMBER_8_FILL"/>
</g>

<g transform="matrix( 10, 0, 0, 10, -73,-1038.95) ">
<use xlink:href="#Layer0_0_MEMBER_25_MEMBER_9_FILL"/>
</g>

<g transform="matrix( 10, 0, 0, 10, -73,-1038.95) ">
<use xlink:href="#Layer0_0_MEMBER_25_MEMBER_10_FILL"/>
</g>

<g transform="matrix( 10, 0, 0, 10, -73,-1038.95) ">
<use xlink:href="#Layer0_0_MEMBER_25_MEMBER_11_FILL"/>
</g>

<g transform="matrix( 10, 0, 0, 10, -73,-1038.95) ">
<use xlink:href="#Layer0_0_MEMBER_25_MEMBER_12_FILL"/>
</g>

<g transform="matrix( 10, 0, 0, 10, -73,-1038.95) ">
<use xlink:href="#Layer0_0_MEMBER_25_MEMBER_13_FILL"/>
</g>

<g transform="matrix( 10, 0, 0, 10, -73,-1038.95) ">
<use xlink:href="#Layer0_0_MEMBER_25_MEMBER_14_FILL"/>
</g>

<g transform="matrix( 10, 0, 0, 10, -73,-1038.95) ">
<use xlink:href="#Layer0_0_MEMBER_25_MEMBER_15_FILL"/>
</g>

<g transform="matrix( 10, 0, 0, 10, -73,-1038.95) ">
<use xlink:href="#Layer0_0_MEMBER_25_MEMBER_16_FILL"/>
</g>

<g transform="matrix( 10, 0, 0, 10, -73,-1038.95) ">
<use xlink:href="#Layer0_0_MEMBER_25_MEMBER_17_FILL"/>
</g>

<g transform="matrix( 10, 0, 0, 10, -73,-1038.95) ">
<use xlink:href="#Layer0_0_MEMBER_25_MEMBER_18_FILL"/>
</g>

<g transform="matrix( 10, 0, 0, 10, -73,-1038.95) ">
<use xlink:href="#Layer0_0_MEMBER_25_MEMBER_19_FILL"/>
</g>

<g transform="matrix( 10, 0, 0, 10, -73,-1038.95) ">
<use xlink:href="#Layer0_0_MEMBER_25_MEMBER_20_FILL"/>
</g>

<g transform="matrix( 10, 0, 0, 10, -73,-1038.95) ">
<use xlink:href="#Layer0_0_MEMBER_25_MEMBER_21_FILL"/>
</g>

<g transform="matrix( 10, 0, 0, 10, -73,-1038.95) ">
<use xlink:href="#Layer0_0_MEMBER_25_MEMBER_22_FILL"/>
</g>

<g transform="matrix( 10, 0, 0, 10, -73,-1038.95) ">
<use xlink:href="#Layer0_0_MEMBER_25_MEMBER_23_FILL"/>
</g>

<g transform="matrix( 10, 0, 0, 10, -73,-1038.95) ">
<use xlink:href="#Layer0_0_MEMBER_25_MEMBER_24_FILL"/>
</g>

<g transform="matrix( 10, 0, 0, 10, -73,-1038.95) ">
<use xlink:href="#Layer0_0_MEMBER_25_MEMBER_25_FILL"/>
</g>

<g transform="matrix( 10, 0, 0, 10, -73,-1038.95) ">
<use xlink:href="#Layer0_0_MEMBER_25_MEMBER_26_FILL"/>
</g>

<g transform="matrix( 10, 0, 0, 10, -73,-1038.95) ">
<use xlink:href="#Layer0_0_MEMBER_25_MEMBER_27_FILL"/>
</g>

<g transform="matrix( 10, 0, 0, 10, -73,-1038.95) ">
<use xlink:href="#Layer0_0_MEMBER_25_MEMBER_28_FILL"/>
</g>

<g transform="matrix( 10, 0, 0, 10, -73,-1038.95) ">
<use xlink:href="#Layer0_0_MEMBER_25_MEMBER_29_FILL"/>
</g>

<g transform="matrix( 10, 0, 0, 10, -73,-1038.95) ">
<use xlink:href="#Layer0_0_MEMBER_25_MEMBER_30_FILL"/>
</g>

<g transform="matrix( 10, 0, 0, 10, -73,-1038.95) ">
<use xlink:href="#Layer0_0_MEMBER_25_MEMBER_31_FILL"/>
</g>

<g transform="matrix( 10, 0, 0, 10, -73,-1038.95) ">
<use xlink:href="#Layer0_0_MEMBER_25_MEMBER_32_FILL"/>
</g>

<g transform="matrix( 10, 0, 0, 10, -73,-1038.95) ">
<use xlink:href="#Layer0_0_MEMBER_25_MEMBER_33_FILL"/>
</g>

<g transform="matrix( 10, 0, 0, 10, -73,-1038.95) ">
<use xlink:href="#Layer0_0_MEMBER_25_MEMBER_34_FILL"/>
</g>

<g transform="matrix( 10, 0, 0, 10, -73,-1038.95) ">
<use xlink:href="#Layer0_0_MEMBER_25_MEMBER_35_FILL"/>
</g>

<g transform="matrix( 10, 0, 0, 10, -73,-1038.95) ">
<use xlink:href="#Layer0_0_MEMBER_25_MEMBER_36_FILL"/>
</g>

<g transform="matrix( 10, 0, 0, 10, -73,-1038.95) ">
<use xlink:href="#Layer0_0_MEMBER_25_MEMBER_37_FILL"/>
</g>

<g transform="matrix( 10, 0, 0, 10, -73,-1038.95) ">
<use xlink:href="#Layer0_0_MEMBER_25_MEMBER_38_FILL"/>
</g>

<g transform="matrix( 10, 0, 0, 10, -73,-1038.95) ">
<use xlink:href="#Layer0_0_MEMBER_25_MEMBER_39_FILL"/>
</g>

<g transform="matrix( 10, 0, 0, 10, -73,-1038.95) ">
<use xlink:href="#Layer0_0_MEMBER_25_MEMBER_40_FILL"/>
</g>

<g transform="matrix( 10, 0, 0, 10, -73,-1038.95) ">
<use xlink:href="#Layer0_0_MEMBER_25_MEMBER_41_FILL"/>
</g>

<g transform="matrix( 10, 0, 0, 10, -73,-1038.95) ">
<use xlink:href="#Layer0_0_MEMBER_25_MEMBER_42_FILL"/>
</g>

<g transform="matrix( 10, 0, 0, 10, -73,-1038.95) ">
<use xlink:href="#Layer0_0_MEMBER_25_MEMBER_43_FILL"/>
</g>

<g transform="matrix( 10, 0, 0, 10, -73,-1038.95) ">
<use xlink:href="#Layer0_0_MEMBER_25_MEMBER_44_FILL"/>
</g>

<g transform="matrix( 10, 0, 0, 10, -73,-1038.95) ">
<use xlink:href="#Layer0_0_MEMBER_25_MEMBER_45_FILL"/>
</g>

<g transform="matrix( 10, 0, 0, 10, -73,-1038.95) ">
<use xlink:href="#Layer0_0_MEMBER_25_MEMBER_46_FILL"/>
</g>

<g transform="matrix( 10, 0, 0, 10, -73,-1038.95) ">
<use xlink:href="#Layer0_0_MEMBER_25_MEMBER_47_FILL"/>
</g>

<g transform="matrix( 10, 0, 0, 10, -73,-1038.95) ">
<use xlink:href="#Layer0_0_MEMBER_25_MEMBER_48_FILL"/>
</g>

<g transform="matrix( 10, 0, 0, 10, -73,-1038.95) ">
<use xlink:href="#Layer0_0_MEMBER_25_MEMBER_49_FILL"/>
</g>

<g transform="matrix( 10, 0, 0, 10, -73,-1038.95) ">
<use xlink:href="#Layer0_0_MEMBER_25_MEMBER_50_FILL"/>
</g>

<g transform="matrix( 10, 0, 0, 10, -73,-1038.95) ">
<use xlink:href="#Layer0_0_MEMBER_25_MEMBER_51_FILL"/>
</g>

<g transform="matrix( 10, 0, 0, 10, -73,-1038.95) ">
<use xlink:href="#Layer0_0_MEMBER_25_MEMBER_52_FILL"/>
</g>

<g transform="matrix( 10, 0, 0, 10, -73,-1038.95) ">
<use xlink:href="#Layer0_0_MEMBER_25_MEMBER_53_FILL"/>
</g>

<g transform="matrix( 10, 0, 0, 10, -73,-1038.95) ">
<use xlink:href="#Layer0_0_MEMBER_25_MEMBER_54_FILL"/>
</g>

<g transform="matrix( 10, 0, 0, 10, -73,-1038.95) ">
<use xlink:href="#Layer0_0_MEMBER_25_MEMBER_55_FILL"/>
</g>

<g transform="matrix( 10, 0, 0, 10, -73,-1038.95) ">
<use xlink:href="#Layer0_0_MEMBER_25_MEMBER_56_FILL"/>
</g>

<g transform="matrix( 10, 0, 0, 10, -73,-1038.95) ">
<use xlink:href="#Layer0_0_MEMBER_25_MEMBER_57_FILL"/>
</g>

<g transform="matrix( 10, 0, 0, 10, -73,-1038.95) ">
<use xlink:href="#Layer0_0_MEMBER_25_MEMBER_58_FILL"/>
</g>

<g transform="matrix( 10, 0, 0, 10, -73,-1038.95) ">
<use xlink:href="#Layer0_0_MEMBER_25_MEMBER_59_FILL"/>
</g>

<g transform="matrix( 10, 0, 0, 10, -73,-1038.95) ">
<use xlink:href="#Layer0_0_MEMBER_25_MEMBER_60_FILL"/>
</g>

<g transform="matrix( 10, 0, 0, 10, -73,-1038.95) ">
<use xlink:href="#Layer0_0_MEMBER_25_MEMBER_61_FILL"/>
</g>

<g transform="matrix( 10, 0, 0, 10, -73,-1038.95) ">
<use xlink:href="#Layer0_0_MEMBER_25_MEMBER_62_FILL"/>
</g>

<g transform="matrix( 10, 0, 0, 10, -73,-1038.95) ">
<use xlink:href="#Layer0_0_MEMBER_25_MEMBER_63_FILL"/>
</g>

<g transform="matrix( 10, 0, 0, 10, -73,-1038.95) ">
<use xlink:href="#Layer0_0_MEMBER_25_MEMBER_64_FILL"/>
</g>

<g transform="matrix( 10, 0, 0, 10, -73,-1038.95) ">
<use xlink:href="#Layer0_0_MEMBER_25_MEMBER_65_FILL"/>
</g>

<g transform="matrix( 10, 0, 0, 10, -73,-1038.95) ">
<use xlink:href="#Layer0_0_MEMBER_25_MEMBER_66_FILL"/>
</g>

<g transform="matrix( 10, 0, 0, 10, -73,-1038.95) ">
<use xlink:href="#Layer0_0_MEMBER_25_MEMBER_67_FILL"/>
</g>

<g transform="matrix( 10, 0, 0, 10, -73,-1038.95) ">
<use xlink:href="#Layer0_0_MEMBER_25_MEMBER_68_FILL"/>
</g>

<g transform="matrix( 10, 0, 0, 10, -73,-1038.95) ">
<use xlink:href="#Layer0_0_MEMBER_25_MEMBER_69_FILL"/>
</g>

<g transform="matrix( 10, 0, 0, 10, -73,-1038.95) ">
<use xlink:href="#Layer0_0_MEMBER_25_MEMBER_70_FILL"/>
</g>

<g transform="matrix( 10, 0, 0, 10, -73,-1038.95) ">
<use xlink:href="#Layer0_0_MEMBER_25_MEMBER_71_FILL"/>
</g>

<g transform="matrix( 10, 0, 0, 10, -73,-1038.95) ">
<use xlink:href="#Layer0_0_MEMBER_25_MEMBER_72_FILL"/>
</g>

<g transform="matrix( 10, 0, 0, 10, -73,-1038.95) ">
<use xlink:href="#Layer0_0_MEMBER_25_MEMBER_73_FILL"/>
</g>

<g transform="matrix( 10, 0, 0, 10, -73,-1038.95) ">
<use xlink:href="#Layer0_0_MEMBER_25_MEMBER_74_FILL"/>
</g>

<g transform="matrix( 10, 0, 0, 10, -73,-1038.95) ">
<use xlink:href="#Layer0_0_MEMBER_25_MEMBER_75_FILL"/>
</g>

<g transform="matrix( 10, 0, 0, 10, -73,-1038.95) ">
<use xlink:href="#Layer0_0_MEMBER_25_MEMBER_76_FILL"/>
</g>

<g transform="matrix( 10, 0, 0, 10, -73,-1038.95) ">
<use xlink:href="#Layer0_0_MEMBER_25_MEMBER_77_FILL"/>
</g>

<g transform="matrix( 10, 0, 0, 10, -73,-1038.95) ">
<use xlink:href="#Layer0_0_MEMBER_25_MEMBER_78_FILL"/>
</g>

<g transform="matrix( 10, 0, 0, 10, -73,-1038.95) ">
<use xlink:href="#Layer0_0_MEMBER_25_MEMBER_79_FILL"/>
</g>

<g transform="matrix( 10, 0, 0, 10, -73,-1038.95) ">
<use xlink:href="#Layer0_0_MEMBER_25_MEMBER_80_FILL"/>
</g>

<g transform="matrix( 10, 0, 0, 10, -73,-1038.95) ">
<use xlink:href="#Layer0_0_MEMBER_25_MEMBER_81_FILL"/>
</g>

<g transform="matrix( 10, 0, 0, 10, -73,-1038.95) ">
<use xlink:href="#Layer0_0_MEMBER_25_MEMBER_82_FILL"/>
</g>

<g transform="matrix( 10, 0, 0, 10, -73,-1038.95) ">
<use xlink:href="#Layer0_0_MEMBER_25_MEMBER_83_FILL"/>
</g>

<g transform="matrix( 10, 0, 0, 10, -73,-1038.95) ">
<use xlink:href="#Layer0_0_MEMBER_25_MEMBER_84_FILL"/>
</g>

<g transform="matrix( 10, 0, 0, 10, -73,-1038.95) ">
<use xlink:href="#Layer0_0_MEMBER_25_MEMBER_85_FILL"/>
</g>

<g transform="matrix( 10, 0, 0, 10, -73,-1038.95) ">
<use xlink:href="#Layer0_0_MEMBER_25_MEMBER_86_FILL"/>
</g>

<g transform="matrix( 10, 0, 0, 10, -73,-1038.95) ">
<use xlink:href="#Layer0_0_MEMBER_25_MEMBER_87_FILL"/>
</g>

<g transform="matrix( 10, 0, 0, 10, -73,-1038.95) ">
<use xlink:href="#Layer0_0_MEMBER_26_FILL"/>
</g>

<g transform="matrix( 10, 0, 0, 10, 354.5,290.05) ">
<use xlink:href="#Layer0_0_MEMBER_27_FILL"/>
</g>
</svg>
